<?xml version="1.0" encoding="UTF-8"?>
<svg width="66px" height="52px" viewBox="0 0 66 52" version="1.1" xmlns="http://www.w3.org/2000/svg" xmlns:xlink="http://www.w3.org/1999/xlink">
    <!-- Generator: Sketch 51.3 (57544) - http://www.bohemiancoding.com/sketch -->
    <title>learning_plus_icon</title>
    <desc>Created with Sketch.</desc>
    <defs></defs>
    <g id="Learn" stroke="none" stroke-width="1" fill="none" fill-rule="evenodd">
        <g id="Learn-vB_1.0" transform="translate(-1158.000000, -2663.000000)">
            <g id="learning_plus_icon" transform="translate(1158.000000, 2663.000000)">
                <g id="computer" transform="translate(0.000000, 17.000000)" fill="#FFFFFF">
                    <path d="M9,29 L57,29 L57,3 C57,2.44771525 56.5522847,2 56,2 L10,2 C9.44771525,2 9,2.44771525 9,3 L9,29 Z M10,0 L56,0 C57.6568542,-3.04359188e-16 59,1.34314575 59,3 L59,31 L7,31 L7,3 C7,1.34314575 8.34314575,3.04359188e-16 10,0 Z" id="Rectangle-5" fill-rule="nonzero"></path>
                    <rect id="Rectangle-6" x="0" y="32" width="66" height="3" rx="1"></rect>
                </g>
                <g id="lightbulb" transform="translate(18.000000, 0.000000)">
                    <path d="M26.8162278,13.4486833 C26.2922844,13.6233311 25.7259645,13.3401711 25.5513167,12.8162278 C25.3766689,12.2922844 25.6598289,11.7259645 26.1837722,11.5513167 L29.1837722,10.5513167 C29.7077156,10.3766689 30.2740355,10.6598289 30.4486833,11.1837722 C30.6233311,11.7077156 30.3401711,12.2740355 29.8162278,12.4486833 L26.8162278,13.4486833 Z" id="Line-3" fill="#FFFFFF" fill-rule="nonzero"></path>
                    <path d="M23.2071068,7.20710678 C22.8165825,7.59763107 22.1834175,7.59763107 21.7928932,7.20710678 C21.4023689,6.81658249 21.4023689,6.18341751 21.7928932,5.79289322 L23.7928932,3.79289322 C24.1834175,3.40236893 24.8165825,3.40236893 25.2071068,3.79289322 C25.5976311,4.18341751 25.5976311,4.81658249 25.2071068,5.20710678 L23.2071068,7.20710678 Z" id="Line-4" fill="#FFFFFF" fill-rule="nonzero"></path>
                    <path d="M1.81622777,13.4486833 C1.29228445,13.6233311 0.725964475,13.3401711 0.551316702,12.8162278 C0.376668929,12.2922844 0.659828916,11.7259645 1.18377223,11.5513167 L4.18377223,10.5513167 C4.70771555,10.3766689 5.27403553,10.6598289 5.4486833,11.1837722 C5.62333107,11.7077156 5.34017108,12.2740355 4.81622777,12.4486833 L1.81622777,13.4486833 Z" id="Line-3" fill="#FFFFFF" fill-rule="nonzero" transform="translate(3.000000, 12.000000) scale(-1, 1) translate(-3.000000, -12.000000) "></path>
                    <path d="M7.20710678,7.20710678 C6.81658249,7.59763107 6.18341751,7.59763107 5.79289322,7.20710678 C5.40236893,6.81658249 5.40236893,6.18341751 5.79289322,5.79289322 L7.79289322,3.79289322 C8.18341751,3.40236893 8.81658249,3.40236893 9.20710678,3.79289322 C9.59763107,4.18341751 9.59763107,4.81658249 9.20710678,5.20710678 L7.20710678,7.20710678 Z" id="Line-4" fill="#FFFFFF" fill-rule="nonzero" transform="translate(7.500000, 5.500000) scale(-1, 1) translate(-7.500000, -5.500000) "></path>
                    <path d="M19,26 C19,27.1045695 18.1045695,28 17,28 L13,28 C11.8954305,28 11,27.1045695 11,26 L11,23.0644804 C8.03656304,21.5917778 6,18.5337213 6,15 C6,10.0294373 10.0294373,6 15,6 C19.9705627,6 24,10.0294373 24,15 C24,18.5337213 21.963437,21.5917778 19,23.0644804 L19,26 Z" id="Combined-Shape" fill="#FFFFFF" fill-rule="nonzero"></path>
                    <path d="M12.5,30.5 C11.9477153,30.5 11.5,30.0522847 11.5,29.5 C11.5,28.9477153 11.9477153,28.5 12.5,28.5 L17.5,28.5 C18.0522847,28.5 18.5,28.9477153 18.5,29.5 C18.5,30.0522847 18.0522847,30.5 17.5,30.5 L12.5,30.5 Z" id="Line-2" fill="#FFFFFF" fill-rule="nonzero"></path>
                    <path d="M13,33 C12.4477153,33 12,32.5522847 12,32 C12,31.4477153 12.4477153,31 13,31 L17,31 C17.5522847,31 18,31.4477153 18,32 C18,32.5522847 17.5522847,33 17,33 L13,33 Z" id="Line-2" fill="#FFFFFF" fill-rule="nonzero"></path>
                    <path d="M16.5,4.5 C16.5,5.05228475 16.0522847,5.5 15.5,5.5 C14.9477153,5.5 14.5,5.05228475 14.5,4.5 L14.5,1.5 C14.5,0.94771525 14.9477153,0.5 15.5,0.5 C16.0522847,0.5 16.5,0.94771525 16.5,1.5 L16.5,4.5 Z" id="Line-5" fill="#FFFFFF" fill-rule="nonzero"></path>
                    <path d="M18.6397665,8.64081973 C19.4119631,9.24616107 19.994937,9.86462312 20.3886882,10.4962059 C21.0940402,11.6276008 21.4596041,12.8446352 21.4596041,14.2330331 C21.4596041,15.9252868 20.929285,17.405413 19.868647,18.6734115" id="Line-6" stroke="#006ABB" stroke-width="2" stroke-linecap="round" transform="translate(20.049685, 13.657116) rotate(-10.000000) translate(-20.049685, -13.657116) "></path>
                </g>
            </g>
        </g>
    </g>
</svg>