<?xml version="1.0" encoding="UTF-8"?>
<svg width="433px" height="173px" viewBox="0 0 433 173" version="1.1" xmlns="http://www.w3.org/2000/svg" xmlns:xlink="http://www.w3.org/1999/xlink">
    <!-- Generator: Sketch 51.3 (57544) - http://www.bohemiancoding.com/sketch -->
    <title>learn_4_free</title>
    <desc>Created with Sketch.</desc>
    <defs>
        <polygon id="path-1" points="10.0803174 74.1221315 19.9865788 74.1221315 19.9865788 90.3967038 10.0803174 90.3967038"></polygon>
        <filter x="-2.6%" y="-2.9%" width="105.2%" height="109.1%" filterUnits="objectBoundingBox" id="filter-3">
            <feOffset dx="0" dy="2" in="SourceAlpha" result="shadowOffsetOuter1"></feOffset>
            <feGaussianBlur stdDeviation="1.5" in="shadowOffsetOuter1" result="shadowBlurOuter1"></feGaussianBlur>
            <feColorMatrix values="0 0 0 0 0   0 0 0 0 0   0 0 0 0 0  0 0 0 0.296365489 0" type="matrix" in="shadowBlurOuter1" result="shadowMatrixOuter1"></feColorMatrix>
            <feMerge>
                <feMergeNode in="shadowMatrixOuter1"></feMergeNode>
                <feMergeNode in="SourceGraphic"></feMergeNode>
            </feMerge>
        </filter>
        <filter x="-8.2%" y="-11.8%" width="116.4%" height="126.7%" filterUnits="objectBoundingBox" id="filter-4">
            <feOffset dx="0" dy="2" in="SourceAlpha" result="shadowOffsetOuter1"></feOffset>
            <feGaussianBlur stdDeviation="5.5" in="shadowOffsetOuter1" result="shadowBlurOuter1"></feGaussianBlur>
            <feColorMatrix values="0 0 0 0 0   0 0 0 0 0   0 0 0 0 0  0 0 0 0.296365489 0" type="matrix" in="shadowBlurOuter1" result="shadowMatrixOuter1"></feColorMatrix>
            <feMerge>
                <feMergeNode in="shadowMatrixOuter1"></feMergeNode>
                <feMergeNode in="SourceGraphic"></feMergeNode>
            </feMerge>
        </filter>
    </defs>
    <g id="Learn" stroke="none" stroke-width="1" fill="none" fill-rule="evenodd">
        <g id="Learn_For_Free_tab" transform="translate(-680.000000, -114.000000)">
            <g id="learn_4_free" transform="translate(681.000000, 123.000000)">
                <g id="Group-12" transform="translate(280.000000, 2.000000)" fill-rule="nonzero">
                    <path d="M45.090559,15.0970823 L40.4094507,17.6990669 C40.1552455,17.8390314 39.998838,18.0998889 40.0000065,18.3819407 L40.0000065,23.6094574 C40.00011,23.891182 40.1561754,24.1514689 40.4094507,24.2923312 L45.090559,26.8943159 C45.343924,27.035228 45.6560825,27.035228 45.9094475,26.8943159 L50.5905558,24.2923312 C50.842018,24.1497294 50.9974263,23.8905383 51,23.6094574 L51,18.3996013 C50.9986494,18.1182003 50.8429169,17.8584687 50.5905558,17.7167275 L45.9094475,15.1147428 C45.6593697,14.9683259 45.3471885,14.9615933 45.090559,15.0970823 Z" id="Shape" fill="#0266AB"></path>
                    <rect id="Rectangle-path" fill="#0483DA" transform="translate(4.949747, 15.949747) rotate(45.000000) translate(-4.949747, -15.949747) " x="1.44974747" y="12.4497475" width="7" height="7"></rect>
                    <circle id="Oval" fill="#7AC7FF" cx="26" cy="23" r="3"></circle>
                    <g id="Group-25" transform="translate(83.020846, 43.746285) rotate(-17.000000) translate(-83.020846, -43.746285) translate(31.520846, 13.746285)">
                        <path d="M92.4034059,8.32922274 C93.8009717,10.4169338 95.4509044,12.321787 97.3152811,14 C99.3935123,10.6761174 100.961202,7.0555375 101.965356,3.26065191 C102.05648,2.81906421 101.966097,2.35916102 101.7148,1.98572669 C101.463503,1.61229236 101.072696,1.35713478 100.63142,1.27838906 C96.758476,0.813155264 92.8382516,0.931552173 89,1.62967615 C89.8503197,3.99786587 90.9937964,6.2487804 92.4034059,8.32922274" id="Fill-417" fill="#0266AB"></path>
                        <path d="M96.9657015,14 L96.4347582,13.5303531 C94.5999855,11.8881434 92.9784561,10.0231506 91.608001,7.97888575 C90.2167285,5.93940504 89.0857786,3.7347175 88.2413379,1.41587122 L88,0.753548655 L88.6998798,0.621084141 C92.4776136,-0.072132505 96.3392446,-0.185836047 100.151361,0.283901744 C100.752306,0.368854438 101.288115,0.706337783 101.623522,1.21115334 C101.959995,1.71347605 102.077584,2.33064388 101.949328,2.92114978 C100.945378,6.62120052 99.4046252,10.1548479 97.3759759,13.4099308 L96.9657015,14 Z M89.6048968,1.68080025 C90.3862007,3.65994704 91.3858653,5.54613784 92.5854193,7.30452096 C93.7747574,9.06022117 95.159174,10.6761123 96.7122968,12.1214124 C98.4947705,9.15390552 99.8514291,5.95160128 100.742639,2.60805184 C100.801997,2.34993592 100.749413,2.07880716 100.597836,1.86143368 C100.456376,1.63673265 100.221927,1.48663852 99.958291,1.45199791 C96.5132959,1.04729019 93.0285628,1.12430021 89.6048968,1.68080025 Z" id="Shape" fill="#0266AB"></path>
                        <path d="M85.6832046,15.4831819 C84.6785832,16.1642754 83.3625566,16.1728547 82.3491416,15.504917 C81.3357266,14.8369793 80.8246415,13.6241581 81.0543425,12.4323177 C81.2840435,11.2404774 82.2092625,10.3044993 83.3983212,10.0610814 C84.5873799,9.81766362 85.8059453,10.3147775 86.4854728,11.3204854 C87.4120352,12.6918076 87.0530453,14.5544842 85.6832046,15.4831819" id="Fill-421" fill="#0483DA"></path>
                        <g id="Group-24" transform="translate(-0.000000, 0.000000)">
                            <path d="M77.8995539,37.9996246 C77.5645642,38.0013918 77.2341387,37.9221428 76.9365896,37.768668 C76.6061284,37.6049771 76.3245214,37.3576827 76.1198984,37.0514872 C75.8903194,36.7173611 75.7593964,36.3256818 75.7420264,35.9210157 C75.6670715,34.1602298 75.1919133,32.4394422 74.3524324,30.888594 C74.0489193,30.36057 73.5427343,29.9786922 72.950649,29.8310561 L71.6341915,30.3172805 C70.6953001,30.6507455 69.6489771,30.3112594 69.0866026,29.4906991 L63.7963939,21.7111101 C63.2444769,20.8930874 63.3093638,19.8080033 63.9548564,19.0611876 C64.0158035,18.988254 64.3571073,18.5992745 64.9178206,17.9914941 C64.9996459,17.3927171 64.8322861,16.7866224 64.4546226,16.3140203 C63.3262921,14.9528097 61.9002112,13.8675038 60.2858407,13.1414066 C59.913602,12.9850046 59.5956854,12.7229226 59.3716341,12.3877589 C59.1592693,12.0821628 59.0329875,11.7253571 59.0059515,11.3545323 C58.9484929,10.5727439 59.3101808,9.81900572 59.9567263,9.37316819 C64.552138,6.2734882 70.5371437,6.1154653 74.1452122,8.9234107 C76.0830745,7.24194248 78.118137,5.67523233 80.2399227,4.23134609 C88.6140548,-1.42101155 100.632824,0.195684292 101.13259,0.268617939 C101.739637,0.354370476 102.280887,0.695031275 102.619699,1.20459974 C102.959589,1.7116519 103.078372,2.33463045 102.948814,2.93069605 C102.82692,3.42907597 99.9014586,15.0863039 91.4907582,20.7994395 C89.3618366,22.2116959 87.151764,23.4983434 84.8719026,24.6527672 C86.0908447,29.0409416 83.7748547,34.5231208 79.1794431,37.6228007 C78.8017068,37.8764263 78.3548544,38.0079882 77.8995539,37.9996246 Z M72.8897019,28.5547173 L73.0725432,28.5547173 C74.0244145,28.7470247 74.8515006,29.3292307 75.3519649,30.1592576 C76.3384566,31.894836 76.8904125,33.8421721 76.9609685,35.8359264 C76.9705007,36.0089834 77.0251182,36.176571 77.1194309,36.3221507 C77.2124175,36.452234 77.333139,36.5601668 77.4729241,36.6381965 C77.7885238,36.7849362 78.1579575,36.7573055 78.4480778,36.5652629 C82.7021857,33.6965394 84.9206603,28.3966944 83.5066875,24.5068999 L83.3238462,23.9963644 L83.7992336,23.7532522 C86.2045039,22.5688893 88.5295195,21.2289124 90.7593929,19.7419017 C98.7922213,14.3205006 101.595788,3.06440774 101.729872,2.59033903 C101.789832,2.32979291 101.736714,2.05611143 101.583599,1.83669135 C101.440702,1.60987473 101.203872,1.45836744 100.937559,1.42340068 C100.449983,1.35046703 88.8944115,-0.205450765 80.8981514,5.1916391 C78.6933495,6.70959205 76.5846313,8.36184601 74.5840314,10.1389715 L74.1817805,10.4914841 L73.7795296,10.1268159 C70.6834167,7.37964851 64.9178206,7.46473776 60.6637127,10.3334612 C60.3786566,10.5314445 60.2171227,10.8628211 60.237083,11.208665 C60.2562696,11.3645508 60.3104317,11.514122 60.3955455,11.6462669 C60.4961918,11.7940014 60.6352389,11.9116535 60.7977964,11.9866239 C62.6297954,12.8141373 64.2383129,14.0640507 65.4907234,15.6333062 C66.0570267,16.3789266 66.2906695,17.3240938 66.1367627,18.2467619 L66.1367627,18.4412516 L65.9904897,18.6722082 L64.93001,19.8877689 C64.6134461,20.2217364 64.5826241,20.7340118 64.8568735,21.1033297 L70.1348928,28.8950743 C70.3842522,29.2538591 70.8428044,29.4029722 71.2563195,29.2597426 L72.7556183,28.7127402 L72.8897019,28.5547173 Z" id="Shape" fill="#0266AB"></path>
                            <path d="M2.22179978,59.6533196 C1.65171423,59.6713311 1.14536745,59.2921304 1.00306003,58.7406113 C0.846153266,58.1074655 1.21705099,57.4633762 1.84399046,57.280278 L1.96586443,57.280278 C2.40216196,57.1399397 2.88042144,57.2559135 3.20366208,57.5804333 C3.52690271,57.904953 3.64045213,58.3831298 3.49754272,58.8180172 C3.35463331,59.2529045 2.97943653,59.5709461 2.52648471,59.6411501 L2.22179978,59.6533196 Z M6.90176039,58.2173252 C6.37780478,58.2186757 5.91162224,57.8854787 5.74395764,57.389803 C5.52569334,56.7546989 5.86383042,56.0630836 6.49957628,55.8442836 L6.90176039,57.061228 L6.58488806,55.8442836 C6.99851094,55.6620957 7.47914754,55.7234944 7.83351645,56.0037889 C8.18788536,56.2840834 8.35775761,56.7372164 8.27482141,57.1809669 C8.19188521,57.6247173 7.86976842,57.9861692 7.43800588,58.1199696 L7.29175711,58.1199696 C7.1700164,58.181168 7.03760087,58.218355 6.90176039,58.2294946 L6.90176039,58.2173252 Z M11.5695336,56.4284169 C10.9838012,56.4298487 10.47989,56.0150148 10.3696073,55.4406038 C10.2593246,54.8661928 10.5738654,54.2946848 11.1185999,54.0797142 L11.2160991,54.0797142 C11.6234136,53.8732634 12.1121462,53.9115751 12.4822068,54.1789643 C12.8522673,54.4463534 13.0415176,54.8979217 12.9724774,55.3487943 C12.9034372,55.7996669 12.5876993,56.1741361 12.1545287,56.3188919 L12.0326547,56.3188919 C11.8878602,56.3896405 11.7304482,56.4310037 11.5695336,56.4405864 L11.5695336,56.4284169 Z M16.2251194,54.4447975 C15.7447153,54.4507654 15.305627,54.1743567 15.1038789,53.7389698 C14.8324091,53.140304 15.0859864,52.4345659 15.6766865,52.1447726 L15.8351227,52.0839254 C16.243951,51.8885225 16.7276059,51.9358035 17.0907182,52.2066695 C17.4538306,52.4775354 17.6364109,52.9272369 17.5647072,53.37412 C17.4930035,53.8210031 17.1788618,54.1912386 16.7491775,54.3352725 C16.5923589,54.4085586 16.4224945,54.449928 16.2494942,54.456967 L16.2251194,54.4447975 Z M20.7344565,52.4125004 C20.2556143,52.4115027 19.821728,52.1306062 19.6254033,51.6945032 C19.350816,51.0828508 19.6232663,50.3646416 20.2347732,50.0881365 L20.3078976,50.0881365 C20.5987086,49.9455235 20.9344201,49.9244037 21.2408571,50.0294435 C21.5472942,50.1344834 21.7992332,50.3570368 21.9410088,50.647931 C22.0838323,50.9383136 22.1049832,51.2735306 21.9997884,51.5795162 C21.8945936,51.8855018 21.6717119,52.1370697 21.3803885,52.2786365 L21.2341398,52.3394837 C21.075399,52.4025356 20.905156,52.4315587 20.7344565,52.4246698 L20.7344565,52.4125004 Z M25.2559809,50.2585088 C24.7855546,50.2641305 24.3538965,49.9988861 24.1469278,49.5770199 C24.0049373,49.2851395 23.9855698,48.9487226 24.0931284,48.6425179 C24.200687,48.3363132 24.4262629,48.0856828 24.7197354,47.9463144 L24.8172346,47.9463144 C25.2088519,47.7366129 25.6837337,47.7563678 26.0565257,47.9978685 C26.4293177,48.2393692 26.6409239,48.6643323 26.608751,49.1068877 C26.576578,49.5494432 26.305726,49.9394357 25.901913,50.1246449 L25.780039,50.1854921 C25.6137456,50.252 25.4348138,50.2810855 25.2559809,50.2706782 L25.2559809,50.2585088 Z M29.7287558,48.0315005 C29.2698293,48.0301116 28.8505932,47.7714147 28.6440774,47.3621811 C28.343141,46.763866 28.582759,46.0351952 29.1803229,45.7314756 L29.7287558,46.8145561 L29.2778221,45.6827978 C29.6653403,45.4828025 30.1302756,45.5044332 30.4974912,45.7395418 C30.8647069,45.9746505 31.0784141,46.3875184 31.0581115,46.8226224 C31.0378089,47.2577263 30.7865809,47.6489635 30.3990626,47.8489588 L30.2771887,47.909806 C30.107391,47.9966762 29.9195401,48.0425277 29.7287558,48.0436699 L29.7287558,48.0315005 Z M34.2380928,45.6949672 C33.7853844,45.7076549 33.3629633,45.4686355 33.1412271,45.0743256 C32.836765,44.4980132 33.0409266,43.7845004 33.6043482,43.4557895 L33.7262221,43.3949423 C34.3089474,43.1652453 34.9711543,43.4141095 35.2576055,43.9704521 C35.5440567,44.5267947 35.361431,45.209368 34.8352753,45.5489339 C34.6544808,45.6552832 34.447907,45.7100077 34.2380928,45.7071367 L34.2380928,45.6949672 Z M38.5889937,43.3827728 C38.0297379,43.3855929 37.5403329,43.0079771 37.4019806,42.4668956 C37.2636283,41.9258141 37.5118401,41.360148 38.0039986,41.0949174 L38.0893104,41.0949174 C38.6748999,40.7588674 39.4224382,40.9604599 39.7589839,41.5451868 C40.0955296,42.1299136 39.8936397,42.8763507 39.3080502,43.2124006 L39.1739888,43.2854173 C38.9910522,43.3696402 38.7900604,43.4072707 38.5889937,43.3949423 L38.5889937,43.3827728 Z M42.952082,40.948884 C42.3993498,40.9472042 41.9169574,40.5743057 41.7768531,40.0404098 C41.6367489,39.5065139 41.8740177,38.9453188 42.3548995,38.673198 L42.4402113,38.673198 C42.8164437,38.3999839 43.315624,38.3644676 43.7268509,38.5816548 C44.1380779,38.7988419 44.3896123,39.2308436 44.3751819,39.6951414 C44.3607516,40.1594391 44.082874,40.5750352 43.6589511,40.7663424 L43.5492645,40.839359 C43.3648478,40.9339765 43.1593056,40.9800506 42.952082,40.9732229 L42.952082,40.948884 Z M47.2786081,38.4419785 C46.848311,38.4419036 46.4499434,38.2152611 46.2304919,37.8456758 C46.066725,37.5666199 46.0209475,37.233946 46.1032694,36.9211268 C46.1855914,36.6083076 46.3892399,36.3410798 46.6692382,36.1784619 L47.2786081,37.2250341 L46.75455,36.1176147 C47.1307824,35.8444006 47.6299627,35.8088844 48.0411896,36.0260715 C48.4524166,36.2432586 48.703951,36.6752604 48.6895206,37.1395581 C48.6750903,37.6038558 48.3972127,38.019452 47.9732897,38.2107591 L47.8636032,38.2716063 C47.6900918,38.3886777 47.4877636,38.4560211 47.2786081,38.4663174 L47.2786081,38.4419785 Z M51.5563846,35.8377175 C51.0111089,35.8394738 50.5310188,35.479354 50.3808451,34.9559349 C50.2306714,34.4325158 50.446963,33.8731859 50.9104525,33.5863703 L50.9835769,33.5863703 C51.2547051,33.4075367 51.5861279,33.3442203 51.9042193,33.410487 C52.2223108,33.4767536 52.5007297,33.6671157 52.6776252,33.9392842 C53.0424088,34.5008706 52.8844987,35.2511981 52.3241906,35.6186675 L52.1901293,35.7038536 C52.0079817,35.8069316 51.802312,35.8614167 51.5929468,35.8620564 L51.5563846,35.8377175 Z M55.7366619,33.0995926 C55.1976607,33.10624 54.7183111,32.7585373 54.5580087,32.2446404 C54.3977063,31.7307435 54.594534,31.1727384 55.0419803,30.8725843 L55.7366619,31.8826482 L55.127292,30.8239065 C55.6712337,30.5022289 56.3712,30.6492573 56.7392485,31.1624989 C57.1072971,31.6757406 57.0212239,32.3847828 56.5410301,32.7953565 L56.4191562,32.8805426 C56.2216371,33.0288982 55.983613,33.1137816 55.7366619,33.1239315 L55.7366619,33.0995926 Z" id="Shape" fill="#0266AB"></path>
                            <path d="M64.6447456,22 C64.3500177,22.1109341 64.0693535,22.2536411 63.808143,22.4253805 C62.0119081,23.6069929 60.387915,27.1518303 60.1172494,27.8962461 C59.9162658,28.3722293 59.9762846,28.9131936 60.2771882,29.3378133 C60.5725459,29.7627296 61.074128,30.0125173 61.6059098,29.9995163 C62.4056035,29.9995163 66.5271013,29.8931711 68.2864272,28.7233748 C68.5434102,28.5488099 68.7823625,28.3509681 69,28.1325686 L64.6447456,22 Z" id="Shape" fill="#0483DA"></path>
                        </g>
                    </g>
                </g>
                <g id="circles-19" transform="translate(0.000000, 84.000000)" stroke="#006ABB" stroke-width="1.3">
                    <circle id="Oval-7" cx="39.5" cy="39.5" r="39.5"></circle>
                    <circle id="Oval-7" cx="40.012987" cy="38.987013" r="31.8051948"></circle>
                    <circle id="Oval-7" cx="40.012987" cy="38.987013" r="24.6233766"></circle>
                    <circle id="Oval-7" cx="40.012987" cy="38.987013" r="16.4155844"></circle>
                </g>
                <polygon id="Shape" fill="#0483DA" fill-rule="nonzero" points="65.5 147 60 150.504493 60 157.513479 65.5 161 71 157.513479 71 150.504493"></polygon>
                <path d="M382,127.972168 L367,127.972168 L367,88.8195096 C367,87.8146222 367.783025,87 368.748936,87 L380.238298,87 C381.204209,87 381.987234,87.8146222 381.987234,88.8195096 L382,127.972168 Z M368.276596,126.644059 L380.723404,126.644059 L380.723404,88.8195096 C380.723404,88.5481166 380.51193,88.3281092 380.251064,88.3281092 L368.761702,88.3281092 C368.635372,88.3244047 368.51315,88.3749866 368.423786,88.4679573 C368.334421,88.5609279 368.285801,88.6880814 368.289362,88.8195096 L368.276596,126.644059 Z" id="Shape" fill="#0483DA" fill-rule="nonzero"></path>
                <path d="M368,128 L353,128 L353,96.7943262 C352.999975,95.8084028 353.780964,95.0071444 354.748936,95 L368,95 L368,128 Z M354.276596,126.699764 L366.723404,126.699764 L366.723404,96.3522459 L354.748936,96.3522459 C354.486018,96.3592953 354.276505,96.5784556 354.276596,96.8463357 L354.276596,126.699764 Z" id="Shape" fill="#0483DA" fill-rule="nonzero"></path>
                <path d="M396,128 L381,128 L381,95 L394.238298,95 C395.211259,95 396,95.8046153 396,96.7971586 L396,128 Z M382.276596,126.697711 L394.723404,126.697711 L394.723404,96.7450671 C394.723404,96.4717581 394.506215,96.2501973 394.238298,96.2501973 L382.276596,96.2501973 L382.276596,126.697711 Z" id="Shape" fill="#0483DA" fill-rule="nonzero"></path>
                <path d="M375.617999,68.0424195 L378.109098,73.0532128 C378.13491,73.1088305 378.191369,73.1443119 378.25332,73.1438473 L383.838625,73.94661 C383.909004,73.9550724 383.968155,74.0028051 383.990575,74.0692279 C384.012995,74.1356506 383.994675,74.2088855 383.943513,74.2573569 L379.8922,78.1416928 C379.866547,78.190386 379.866547,78.248373 379.8922,78.2970663 L380.849306,83.7869277 C380.861464,83.8542975 380.834167,83.9226864 380.778732,83.9637451 C380.723296,84.0048039 380.649172,84.0115335 380.587086,83.9811445 L375.591777,81.3915872 C375.537914,81.3660111 375.475197,81.3660111 375.421334,81.3915872 L370.426025,83.9811445 C370.363939,84.0115335 370.289815,84.0048039 370.234379,83.9637451 C370.178944,83.9226864 370.151647,83.8542975 370.163805,83.7869277 L371.1078,78.2970663 C371.135905,78.2489936 371.135905,78.1897655 371.1078,78.1416928 L367.056487,74.2573569 C367.005325,74.2088855 366.987005,74.1356506 367.009425,74.0692279 C367.031845,74.0028051 367.090996,73.9550724 367.161375,73.94661 L372.74668,73.1438473 C372.803841,73.139483 372.854073,73.1047584 372.877791,73.0532128 L375.382001,68.0424195 C375.450243,67.9858602 375.549757,67.9858602 375.617999,68.0424195 Z" id="Shape" fill="#0266AB" fill-rule="nonzero"></path>
                <path d="M360.609835,80.039627 L361.872934,82.7168834 C361.89777,82.7741859 361.95037,82.8127886 362.010227,82.8176404 L364.83847,83.2494559 C364.910468,83.2566611 364.971201,83.3087068 364.992259,83.3812471 C365.013317,83.4537874 364.990537,83.5324802 364.934575,83.5805145 L362.888904,85.667623 C362.861927,85.7166112 362.861927,85.7769672 362.888904,85.8259554 L363.369431,88.7910889 C363.377157,88.8601664 363.3477,88.9280369 363.29295,88.9673111 C363.238199,89.0065853 363.167188,89.0107825 363.108574,88.9782089 L360.582376,87.5388237 C360.525973,87.5103912 360.460298,87.5103912 360.403895,87.5388237 L357.877697,88.9782089 C357.819082,89.0107825 357.748072,89.0065853 357.693321,88.9673111 C357.63857,88.9280369 357.609114,88.8601664 357.61684,88.7910889 L358.111096,85.8259554 C358.13022,85.7750822 358.13022,85.7184963 358.111096,85.667623 L356.065425,83.5805145 C356.009463,83.5324802 355.986683,83.4537874 356.007741,83.3812471 C356.028799,83.3087068 356.089532,83.2566611 356.16153,83.2494559 L358.989773,82.8176404 C359.04963,82.8127886 359.10223,82.7741859 359.127066,82.7168834 L360.390165,80.039627 C360.454717,79.986791 360.545283,79.986791 360.609835,80.039627 Z" id="Shape" fill="#0266AB" fill-rule="nonzero"></path>
                <path d="M389.609131,80.039876 L390.876915,82.7339576 C390.901843,82.7916201 390.954639,82.8304655 391.014717,82.8353477 L393.853449,83.269877 C393.919377,83.2870381 393.971862,83.3393732 393.991638,83.4076694 C394.011413,83.4759656 393.995565,83.5501604 393.949911,83.6030161 L391.896653,85.703241 C391.869691,85.7577127 391.869691,85.8225811 391.896653,85.8770527 L392.378962,88.7739146 C392.392978,88.8458281 392.365955,88.9197472 392.309731,88.9632921 C392.253507,89.006837 392.178333,89.0120685 392.117137,88.976695 L389.581571,87.528264 C389.529747,87.4999243 389.468032,87.4999243 389.416208,87.528264 L386.880641,88.976695 C386.819446,89.0120685 386.744272,89.006837 386.688047,88.9632921 C386.631823,88.9197472 386.604801,88.8458281 386.618816,88.7739146 L387.101125,85.8770527 C387.128088,85.8225811 387.128088,85.7577127 387.101125,85.703241 L385.047868,83.6030161 C385.002091,83.5481406 384.9879,83.471642 385.010711,83.4027102 C385.033522,83.3337785 385.089815,83.2830483 385.15811,83.269877 L387.983062,82.8353477 C388.044259,82.8338969 388.09862,82.7938998 388.120864,82.7339576 L389.388647,80.039876 C389.453438,79.986708 389.54434,79.986708 389.609131,80.039876 Z" id="Shape" fill="#0266AB" fill-rule="nonzero"></path>
                <path d="M411.461538,139.345455 L395.046154,139.345455 C394.538462,139.345455 394.2,139.018182 394.2,138.527273 L394.2,114.636364 C394.2,114.145455 394.538462,113.818182 395.046154,113.818182 L411.461538,113.818182 C411.630769,113.818182 411.969231,113.981818 412.138462,113.981818 L424.492308,125.927273 C424.661538,126.090909 424.661538,126.254545 424.661538,126.581818 C424.661538,126.909091 424.492308,127.072727 424.492308,127.236364 L412.138462,139.181818 C411.969231,139.181818 411.630769,139.345455 411.461538,139.345455 Z M395.892308,137.709091 L411.123077,137.709091 L422.630769,126.581818 L411.123077,115.454545 L395.892308,115.454545 L395.892308,137.709091 Z" id="Shape" fill="#0266AB" fill-rule="nonzero"></path>
                <rect id="Rectangle-path" fill="#0483DA" fill-rule="nonzero" transform="translate(395.138740, 126.506971) rotate(45.000000) translate(-395.138740, -126.506971) " x="386.423439" y="118.079779" width="17.4306021" height="16.8543838"></rect>
                <path d="M395.046154,139.672727 L381.507692,126.581818 L395.046154,113.490909 L408.584615,126.581818 L395.046154,139.672727 Z M383.876923,126.581818 L395.046154,137.381818 L406.215385,126.581818 L395.046154,115.781818 L383.876923,126.581818 Z" id="Shape" fill="#0483DA" fill-rule="nonzero"></path>
                <polygon id="Shape" fill="#F9F9F9" fill-rule="nonzero" points="393.015385 132.636364 388.953846 128.709091 389.969231 127.727273 393.015385 130.672727 400.292308 123.636364 401.307692 124.618182"></polygon>
                <path d="M416.732386,58.801856 L414.116115,55.4948826 L411.367375,56.7846022 C411.101116,56.6035915 410.824685,56.4379712 410.539441,56.2885562 L410.291061,52.9981177 L406.068599,52.4524671 L405.025403,55.312999 C404.559935,55.397539 404.100755,55.51355 403.651033,55.6602313 L401.150673,53.4941637 L397.838938,56.1066727 L399.246425,59.1160185 C399.044936,59.4128719 398.862427,59.7221385 398.699989,60.041971 L395.520723,60.3395986 L394.990845,64.5559897 L397.954848,65.5480817 C398.028432,65.968746 398.1336,66.3832871 398.269463,66.7881967 L396.199629,69.3014965 L398.815899,72.6084699 L401.730226,71.1534016 C402.122024,71.4177075 402.537817,71.6446809 402.972127,71.8313312 L403.253624,74.9068164 L407.492645,75.4524671 L408.519283,72.3604469 C408.833898,72.3604469 409.148513,72.1950983 409.463128,72.0958891 L411.748225,73.9808639 L415.05996,71.3683549 L413.735266,68.7227762 C413.970836,68.3572579 414.18107,67.9760648 414.364495,67.5818704 L417.460968,67.3669171 L417.990845,63.150526 L415.010284,62.0592248 C414.934041,61.7003943 414.834478,61.3469026 414.712228,61.0009933 L416.732386,58.801856 Z M410.163332,68.58612 C408.456271,69.9076792 406.121671,70.0700389 404.24832,68.9974792 C402.374969,67.9249195 401.331864,65.8287036 401.605479,63.6864461 C401.879094,61.5441886 403.415534,59.7778521 405.498249,59.211205 C407.580964,58.6445579 409.799718,59.3892133 411.119749,61.0978852 C411.98939,62.2162467 412.377436,63.6354446 412.19791,65.0410355 C412.018384,66.4466264 411.28611,67.7225545 410.163332,68.58612 Z" id="Shape" fill="#0483DA" fill-rule="nonzero" transform="translate(406.490845, 63.952467) rotate(18.000000) translate(-406.490845, -63.952467) "></path>
                <path d="M432.070928,52.854274 L431.229509,50.3771167 L429.384469,50.5801623 C429.267135,50.418848 429.138395,50.2661718 428.999241,50.1233095 L429.50612,48.2248324 L427.164339,47.067472 L425.998517,48.5192486 C425.713907,48.4704211 425.425575,48.4466416 425.136823,48.4481826 L424.123064,46.6918375 L421.659632,47.5243248 L421.872521,49.5547816 C421.697819,49.6858959 421.531883,49.828333 421.37578,49.9811776 L419.469915,49.5243248 L418.31423,51.8695024 L419.834867,53.0370151 C419.794086,53.2955819 419.773748,53.5569689 419.774042,53.818741 L418.070928,54.8339694 L418.912348,57.3111268 L420.889176,57.0573197 C421.065605,57.2846406 421.258757,57.4984344 421.467018,57.6969136 L421.031102,59.5344771 L423.362746,60.6918375 L424.579256,59.1080811 C424.778341,59.1232444 424.978288,59.1232444 425.177373,59.1080811 L426.130306,60.6613806 L428.593738,59.8288933 L428.360573,58.0217867 C428.57141,57.8592851 428.771223,57.6829231 428.958691,57.4938679 L430.793593,57.9811776 L431.949277,55.6359999 L430.438778,54.4177258 C430.438778,54.1943755 430.438778,53.960873 430.438778,53.7375227 L432.070928,52.854274 Z M426.150581,56.854274 C424.917151,57.2693557 423.555508,56.8986007 422.701759,55.9152114 C421.848009,54.931822 421.670671,53.5299046 422.252589,52.3643804 C422.834507,51.1988562 424.06082,50.4997823 425.358642,50.5937387 C426.656463,50.6876951 427.769623,51.5561363 428.178097,52.7933603 C428.733333,54.4751122 427.827175,56.2900557 426.150581,56.854274 Z" id="Shape" fill="#0483DA" fill-rule="nonzero" transform="translate(425.070928, 53.691837) rotate(18.000000) translate(-425.070928, -53.691837) "></path>
                <mask id="mask-2" fill="white">
                    <use xlink:href="#path-1"></use>
                </mask>
                <g id="Clip-2" transform="translate(15.033448, 82.259418) rotate(92.000000) translate(-15.033448, -82.259418) "></g>
                <path d="M19.9311853,83.6723141 L10.4028753,74.1773593 C10.3490736,74.1236204 10.2676782,74.1071723 10.1969926,74.1365529 C10.1263071,74.1656824 10.0803174,74.2343627 10.0803174,74.3105765 L10.0803174,87.7383877 C10.0803174,87.8146015 10.1263071,87.8832817 10.1969926,87.9124112 C10.2203025,87.9220792 10.2449983,87.9267248 10.2691902,87.9267248 C10.3184558,87.9267248 10.3668395,87.9075145 10.4028753,87.8714793 L13.2817045,85.0028533 L15.4754763,90.280437 C15.4946281,90.3265168 15.5314199,90.3631798 15.5776616,90.3822646 C15.6008455,90.3919326 15.6254153,90.3967038 15.6499851,90.3967038 C15.674681,90.3967038 15.6992508,90.3919326 15.7224347,90.3822646 L17.817801,89.5174204 C17.9141904,89.4776185 17.9599281,89.3673785 17.9199864,89.2713266 L15.7263406,83.9938684 L19.7975001,83.9938684 C19.8739816,83.9938684 19.9429032,83.9479141 19.972135,83.8776016 C20.0014928,83.8071635 19.9852389,83.7261785 19.9311853,83.6723141" id="Fill-1" fill="#0483DA" mask="url(#mask-2)" transform="translate(15.033448, 82.259418) rotate(92.000000) translate(-15.033448, -82.259418) "></path>
                <circle id="Oval" fill="#7AC7FF" fill-rule="nonzero" mask="url(#mask-2)" cx="22" cy="149" r="5"></circle>
                <path d="M129.165003,128.080902 L125.335005,130.249222 C125.127019,130.365859 124.999049,130.583241 125.000005,130.818284 L125.000005,135.174548 C125.00009,135.409318 125.12778,135.626224 125.335005,135.743609 L129.165003,137.91193 C129.372301,138.029357 129.627704,138.029357 129.835002,137.91193 L133.665,135.743609 C133.870742,135.624774 133.997894,135.408782 134,135.174548 L134,130.833001 C133.998895,130.5985 133.871477,130.382057 133.665,130.26394 L129.835002,128.095619 C129.630393,127.973605 129.374972,127.967994 129.165003,128.080902 Z" id="Shape" fill="#0266AB" fill-rule="nonzero" mask="url(#mask-2)"></path>
                <rect id="Rectangle-path" fill="#0483DA" fill-rule="nonzero" mask="url(#mask-2)" transform="translate(105.949747, 148.949747) rotate(45.000000) translate(-105.949747, -148.949747) " x="102.449747" y="145.449747" width="7" height="7"></rect>
                <circle id="Oval" fill="#7AC7FF" fill-rule="nonzero" mask="url(#mask-2)" cx="90" cy="142" r="3"></circle>
                <g id="browser" transform="translate(31.000000, 0.000000)">
                    <g id="Group" filter="url(#filter-3)" transform="translate(126.000000, 40.000000)">
                        <g fill-rule="nonzero">
                            <rect id="Rectangle-path" fill="#F0F0F0" x="0.102596038" y="0.138121609" width="192.114661" height="114.800938"></rect>
                            <rect id="Rectangle-path" fill="#30404D" opacity="0.617522321" x="115.406227" y="11.0798146" width="76.8110294" height="103.859245"></rect>
                            <rect id="Rectangle-path" fill="#FFFFFF" x="0.102596038" y="0.138121609" width="192.114661" height="10.941693"></rect>
                            <path d="M103.039826,44.2522491 L12.4689976,44.2522491 C11.4239496,44.2522491 10.5530762,43.3838608 10.5530762,42.3417948 C10.5530762,41.2997288 11.4239496,40.4313404 12.4689976,40.4313404 L103.039826,40.4313404 C104.084874,40.4313404 104.955747,41.2997288 104.955747,42.3417948 C104.955747,43.3838608 104.084874,44.2522491 103.039826,44.2522491 Z" id="Shape" fill="#CFCFCF"></path>
                            <path d="M142.054952,30.705391 L127.598454,30.705391 C126.553406,30.705391 125.682533,29.8370027 125.682533,28.7949367 C125.682533,27.7528707 126.553406,26.8844824 127.598454,26.8844824 L142.054952,26.8844824 C143.1,26.8844824 143.970873,27.7528707 143.970873,28.7949367 C143.970873,29.8370027 143.1,30.705391 142.054952,30.705391 Z" id="Shape" fill="#E7E7E7"></path>
                            <path d="M127.772629,64.9198915 C127.250105,64.9198915 126.727581,64.7462138 126.379232,64.3988585 C126.030882,64.0515032 125.856708,63.5304702 125.856708,63.0094372 C125.856708,62.8357595 125.856708,62.4884042 126.030882,62.3147265 C126.205057,62.1410488 126.205057,61.9673712 126.379232,61.7936935 C126.901756,61.2726605 127.772629,61.0989828 128.295153,61.4463382 C128.469328,61.6200158 128.643502,61.6200158 128.817677,61.7936935 C128.991852,61.9673712 129.166026,62.1410488 129.166026,62.3147265 C129.340201,62.4884042 129.340201,62.8357595 129.340201,63.0094372 C129.340201,63.5304702 129.166026,63.8778255 128.817677,64.3988585 C128.643502,64.7462138 128.295153,64.9198915 127.772629,64.9198915 Z" id="Shape" fill="#E7E7E7"></path>
                            <path d="M134.565441,57.2780741 L133.172044,57.2780741 C132.126996,57.2780741 131.256122,56.4096858 131.256122,55.5412975 C131.256122,54.6729091 132.126996,53.8045208 133.172044,53.8045208 L134.565441,53.8045208 C135.610489,53.8045208 136.481363,54.6729091 136.481363,55.5412975 C136.481363,56.4096858 135.610489,57.2780741 134.565441,57.2780741 Z" id="Shape" fill="#E7E7E7"></path>
                            <path d="M153.027956,51.1993558 L138.571459,51.1993558 C137.526411,51.1993558 136.655537,50.3309675 136.655537,49.4625791 C136.655537,48.5941908 137.526411,47.5521248 138.571459,47.5521248 L153.027956,47.5521248 C154.073004,47.5521248 154.943878,48.4205131 154.943878,49.4625791 C154.943878,50.5046451 154.073004,51.1993558 153.027956,51.1993558 Z" id="Shape" fill="#0483DA"></path>
                            <path d="M96.2470138,52.9361325 L12.6431723,52.9361325 C11.5981242,52.9361325 10.7272509,52.0677441 10.7272509,51.1993558 C10.7272509,50.3309675 11.5981242,49.4625791 12.6431723,49.4625791 L96.2470138,49.4625791 C97.2920618,49.4625791 98.1629352,50.3309675 98.1629352,51.1993558 C98.1629352,52.0677441 97.1178872,52.9361325 96.2470138,52.9361325 Z" id="Shape" fill="#CFCFCF"></path>
                            <path d="M89.280027,63.5304702 L12.4689976,63.5304702 C11.4239496,63.5304702 10.5530762,62.6620818 10.5530762,61.7936935 C10.5530762,60.9253052 11.4239496,60.0569168 12.4689976,60.0569168 L89.280027,60.0569168 C90.325075,60.0569168 91.1959484,60.9253052 91.1959484,61.7936935 C91.1959484,62.6620818 90.325075,63.5304702 89.280027,63.5304702 Z" id="Shape" fill="#CFCFCF"></path>
                            <path d="M65.2439226,21.1531193 L50.0907263,21.1531193 C49.0456783,21.1531193 48.1748049,20.284731 48.1748049,19.242665 C48.1748049,18.200599 49.0456783,17.3322107 50.0907263,17.3322107 L65.2439226,17.3322107 C66.2889706,17.3322107 67.1598439,18.200599 67.1598439,19.242665 C67.1598439,20.284731 66.2889706,21.1531193 65.2439226,21.1531193 Z" id="Shape" fill="#E7E7E7"></path>
                            <path d="M29.7122899,7.43258363 L14.5590936,7.43258363 C13.5140456,7.43258363 12.6431723,6.5641953 12.6431723,5.52212929 C12.6431723,4.48006329 13.5140456,3.61167495 14.5590936,3.61167495 L29.7122899,3.61167495 C30.7573379,3.61167495 31.6282113,4.48006329 31.6282113,5.52212929 C31.6282113,6.5641953 30.5831633,7.43258363 29.7122899,7.43258363 Z" id="Shape" fill="#D0D5D6"></path>
                            <path d="M42.6012155,7.43258363 L37.7243247,7.43258363 C36.6792767,7.43258363 35.8084034,6.5641953 35.8084034,5.52212929 C35.8084034,4.48006329 36.6792767,3.61167495 37.7243247,3.61167495 L42.6012155,3.61167495 C43.6462635,3.61167495 44.5171369,4.48006329 44.5171369,5.52212929 C44.5171369,6.5641953 43.6462635,7.43258363 42.6012155,7.43258363 Z" id="Shape" fill="#D0D5D6"></path>
                            <path d="M55.6643157,7.43258363 L50.787425,7.43258363 C49.742377,7.43258363 48.8715036,6.5641953 48.8715036,5.52212929 C48.8715036,4.48006329 49.742377,3.61167495 50.787425,3.61167495 L55.6643157,3.61167495 C56.7093637,3.61167495 57.5802371,4.48006329 57.5802371,5.52212929 C57.5802371,6.5641953 56.7093637,7.43258363 55.6643157,7.43258363 Z" id="Shape" fill="#D0D5D6"></path>
                            <path d="M68.727416,7.43258363 L63.8505252,7.43258363 C62.8054772,7.43258363 61.9346038,6.5641953 61.9346038,5.52212929 C61.9346038,4.48006329 62.8054772,3.61167495 63.8505252,3.61167495 L68.727416,3.61167495 C69.772464,3.61167495 70.6433373,4.48006329 70.6433373,5.52212929 C70.6433373,6.5641953 69.772464,7.43258363 68.727416,7.43258363 Z" id="Shape" fill="#D0D5D6"></path>
                            <path d="M87.189931,32.2684901 L13.1656963,32.2684901 C11.5981242,32.2684901 10.3789016,31.0527464 10.3789016,29.4896474 C10.3789016,27.9265484 11.5981242,26.7108047 13.1656963,26.7108047 L87.189931,26.7108047 C88.757503,26.7108047 89.9767257,27.9265484 89.9767257,29.4896474 C89.9767257,31.0527464 88.757503,32.2684901 87.189931,32.2684901 Z" id="Shape" fill="#A8A8A8"></path>
                            <polygon id="Shape" fill="#CFCFCF" points="100.94973 16.4638223 103.736525 19.242665 100.94973 22.0215077"></polygon>
                            <polygon id="Shape" fill="#CFCFCF" points="13.862395 16.4638223 11.0756002 19.242665 13.862395 22.0215077"></polygon>
                            <path d="M136.655537,37.4788201 L133.172044,37.4788201 C132.126996,37.4788201 131.256122,36.6104317 131.256122,35.5683657 C131.256122,34.5262997 132.126996,33.6579114 133.172044,33.6579114 L136.655537,33.6579114 C137.700585,33.6579114 138.571459,34.5262997 138.571459,35.5683657 C138.571459,36.6104317 137.700585,37.4788201 136.655537,37.4788201 Z" id="Shape" fill="#E7E7E7"></path>
                            <rect id="Rectangle-path" fill="#F25022" x="2.88939076" y="2.91696429" width="2.78679472" height="2.77884268"></rect>
                            <rect id="Rectangle-path" fill="#7FBA00" x="5.67618547" y="2.91696429" width="2.78679472" height="2.77884268"></rect>
                            <rect id="Rectangle-path" fill="#00A4EF" x="2.88939076" y="5.52212929" width="2.78679472" height="2.77884268"></rect>
                            <rect id="Rectangle-path" fill="#FFB900" x="5.67618547" y="5.52212929" width="2.78679472" height="2.77884268"></rect>
                            <rect id="Rectangle-path" fill="#D5D5D5" x="11.0756002" y="71.8669982" width="93.357623" height="43.0720615"></rect>
                            <rect id="Rectangle-path" fill="#696969" opacity="0.5" x="115.406227" y="11.0798146" width="76.8110294" height="9.5522717"></rect>
                            <path d="M151.112035,37.4788201 L142.229127,37.4788201 C141.184079,37.4788201 140.313205,36.6104317 140.313205,35.5683657 C140.313205,34.5262997 141.184079,33.6579114 142.229127,33.6579114 L151.112035,33.6579114 C152.157083,33.6579114 153.027956,34.5262997 153.027956,35.5683657 C153.027956,36.6104317 151.982908,37.4788201 151.112035,37.4788201 Z" id="Shape" fill="#0483DA"></path>
                            <path d="M142.751651,44.2522491 L133.172044,44.2522491 C132.126996,44.2522491 131.256122,43.3838608 131.256122,42.3417948 C131.256122,41.2997288 132.126996,40.4313404 133.172044,40.4313404 L142.751651,40.4313404 C143.796699,40.4313404 144.667572,41.2997288 144.667572,42.3417948 C144.667572,43.3838608 143.796699,44.2522491 142.751651,44.2522491 Z" id="Shape" fill="#E7E7E7"></path>
                            <path d="M149.021939,44.2522491 L148.32524,44.2522491 C147.280192,44.2522491 146.409319,43.3838608 146.409319,42.3417948 C146.409319,41.2997288 147.280192,40.4313404 148.32524,40.4313404 L149.021939,40.4313404 C150.066987,40.4313404 150.93786,41.2997288 150.93786,42.3417948 C150.93786,43.3838608 150.066987,44.2522491 149.021939,44.2522491 Z" id="Shape" fill="#B8D432"></path>
                            <path d="M179.850855,30.705391 L147.628541,30.705391 C146.583493,30.705391 145.71262,29.8370027 145.71262,28.7949367 C145.71262,27.7528707 146.583493,26.8844824 147.628541,26.8844824 L179.850855,26.8844824 C180.895903,26.8844824 181.592602,27.7528707 181.592602,28.7949367 C181.592602,29.8370027 180.895903,30.705391 179.850855,30.705391 Z" id="Shape" fill="#B8D432"></path>
                            <path d="M165.394358,37.4788201 L156.51145,37.4788201 C155.466402,37.4788201 154.595528,36.6104317 154.595528,35.5683657 C154.595528,34.5262997 155.466402,33.6579114 156.51145,33.6579114 L165.394358,33.6579114 C166.439406,33.6579114 167.136104,34.5262997 167.136104,35.5683657 C167.136104,36.6104317 166.439406,37.4788201 165.394358,37.4788201 Z" id="Shape" fill="#B8D432"></path>
                            <path d="M173.058043,51.1993558 L158.601546,51.1993558 C157.556498,51.1993558 156.859799,50.3309675 156.859799,49.4625791 C156.859799,48.5941908 157.730672,47.5521248 158.601546,47.5521248 L173.058043,47.5521248 C174.103091,47.5521248 174.79979,48.4205131 174.79979,49.4625791 C174.79979,50.5046451 174.103091,51.1993558 173.058043,51.1993558 Z" id="Shape" fill="#0266AB"></path>
                            <path d="M164.175135,44.2522491 L154.595528,44.2522491 C153.55048,44.2522491 152.679607,43.3838608 152.679607,42.3417948 C152.679607,41.2997288 153.55048,40.4313404 154.595528,40.4313404 L164.175135,40.4313404 C165.220183,40.4313404 165.916882,41.2997288 165.916882,42.3417948 C165.916882,43.3838608 165.046008,44.2522491 164.175135,44.2522491 Z" id="Shape" fill="#7AC7FF"></path>
                            <path d="M169.57455,44.4259268 C169.400375,44.4259268 169.052026,44.4259268 168.877851,44.2522491 C168.703676,44.0785714 168.529502,44.0785714 168.355327,43.9048938 C168.006978,43.5575384 167.832803,43.0365054 167.832803,42.6891501 C167.832803,42.5154724 167.832803,42.5154724 167.832803,42.3417948 C167.832803,42.1681171 167.832803,42.1681171 168.006978,41.9944394 C168.006978,41.8207618 168.181152,41.6470841 168.355327,41.4734064 C168.355327,41.2997288 168.529502,41.2997288 168.703676,41.2997288 C168.877851,41.2997288 168.877851,41.1260511 169.052026,41.1260511 C169.748724,40.7786958 170.445423,40.9523734 170.967947,41.4734064 C171.316297,41.8207618 171.490471,42.3417948 171.490471,42.6891501 C171.490471,43.2101831 171.316297,43.7312161 170.967947,43.9048938 C170.793773,44.0785714 170.619598,44.2522491 170.445423,44.2522491 C170.097074,44.2522491 169.748724,44.4259268 169.57455,44.4259268 Z" id="Shape" fill="#E7E7E7"></path>
                            <path d="M170.271248,37.4788201 C169.748724,37.4788201 169.400375,37.3051424 169.052026,36.9577871 C168.703676,36.6104317 168.529502,36.0893987 168.529502,35.7420434 C168.529502,35.5683657 168.529502,35.2210104 168.703676,35.0473327 C168.877851,34.8736551 168.877851,34.6999774 169.052026,34.5262997 C169.2262,34.3526221 169.400375,34.1789444 169.57455,34.1789444 C170.271248,33.8315891 171.142122,34.0052667 171.664646,34.5262997 C171.838821,34.6999774 172.012995,34.8736551 172.012995,35.0473327 C172.18717,35.2210104 172.18717,35.5683657 172.18717,35.7420434 C172.18717,36.2630764 172.012995,36.7841094 171.664646,36.9577871 C171.142122,37.3051424 170.793773,37.4788201 170.271248,37.4788201 Z" id="Shape" fill="#E7E7E7"></path>
                            <path d="M142.054952,71.6933205 L127.598454,71.6933205 C126.553406,71.6933205 125.682533,70.8249322 125.682533,69.9565439 C125.682533,69.0881555 126.553406,68.2197672 127.598454,68.2197672 L142.054952,68.2197672 C143.1,68.2197672 143.970873,69.0881555 143.970873,69.9565439 C143.970873,70.8249322 143.1,71.6933205 142.054952,71.6933205 Z" id="Shape" fill="#E7E7E7"></path>
                            <path d="M127.772629,105.907821 C127.598454,105.907821 127.250105,105.907821 127.07593,105.734143 C126.901756,105.734143 126.727581,105.560466 126.553406,105.386788 C126.205057,105.039433 126.030882,104.5184 126.030882,103.997367 C126.030882,103.823689 126.030882,103.476334 126.205057,103.302656 C126.379232,103.128978 126.379232,102.955301 126.553406,102.781623 C126.901756,102.434268 127.598454,102.26059 128.120978,102.26059 C128.295153,102.26059 128.295153,102.26059 128.469328,102.434268 C128.643502,102.607945 128.817677,102.607945 128.991852,102.781623 C129.166026,102.955301 129.340201,103.128978 129.340201,103.302656 C129.514376,103.476334 129.514376,103.823689 129.514376,103.997367 C129.514376,104.5184 129.340201,104.865755 128.991852,105.386788 C128.817677,105.560466 128.643502,105.734143 128.469328,105.734143 C128.120978,105.907821 127.946804,105.907821 127.772629,105.907821 Z" id="Shape" fill="#E7E7E7"></path>
                            <path d="M134.565441,98.4396813 L133.172044,98.4396813 C132.126996,98.4396813 131.256122,97.5712929 131.256122,96.7029046 C131.256122,95.8345163 132.126996,94.9661279 133.172044,94.9661279 L134.565441,94.9661279 C135.610489,94.9661279 136.481363,95.8345163 136.481363,96.7029046 C136.481363,97.5712929 135.610489,98.4396813 134.565441,98.4396813 Z" id="Shape" fill="#E7E7E7"></path>
                            <path d="M149.021939,92.1872853 L138.745633,92.1872853 C137.700585,92.1872853 136.829712,91.3188969 136.829712,90.4505086 C136.829712,89.5821203 137.700585,88.7137319 138.745633,88.7137319 L149.021939,88.7137319 C150.066987,88.7137319 150.93786,89.5821203 150.93786,90.4505086 C150.93786,91.3188969 150.066987,92.1872853 149.021939,92.1872853 Z" id="Shape" fill="#0483DA"></path>
                            <path d="M136.655537,78.4667495 L133.172044,78.4667495 C132.126996,78.4667495 131.256122,77.5983612 131.256122,76.7299729 C131.256122,75.8615845 132.126996,74.9931962 133.172044,74.9931962 L136.655537,74.9931962 C137.700585,74.9931962 138.571459,75.8615845 138.571459,76.7299729 C138.571459,77.5983612 137.700585,78.4667495 136.655537,78.4667495 Z" id="Shape" fill="#E7E7E7"></path>
                            <path d="M157.904847,78.4667495 L142.054952,78.4667495 C141.009904,78.4667495 140.139031,77.5983612 140.139031,76.7299729 C140.139031,75.8615845 141.009904,74.9931962 142.054952,74.9931962 L157.904847,74.9931962 C158.949895,74.9931962 159.646594,75.8615845 159.646594,76.7299729 C159.646594,77.5983612 158.949895,78.4667495 157.904847,78.4667495 Z" id="Shape" fill="#0266AB"></path>
                            <path d="M142.751651,85.4138562 L133.172044,85.4138562 C132.126996,85.4138562 131.256122,84.5454679 131.256122,83.6770796 C131.256122,82.8086912 132.126996,81.9403029 133.172044,81.9403029 L142.751651,81.9403029 C143.796699,81.9403029 144.667572,82.8086912 144.667572,83.6770796 C144.667572,84.5454679 143.796699,85.4138562 142.751651,85.4138562 Z" id="Shape" fill="#E7E7E7"></path>
                            <path d="M149.021939,85.4138562 L148.32524,85.4138562 C147.280192,85.4138562 146.409319,84.5454679 146.409319,83.6770796 C146.409319,82.8086912 147.280192,81.9403029 148.32524,81.9403029 L149.021939,81.9403029 C150.066987,81.9403029 150.93786,82.8086912 150.93786,83.6770796 C150.93786,84.5454679 150.066987,85.4138562 149.021939,85.4138562 Z" id="Shape" fill="#B8D432"></path>
                            <path d="M159.298244,71.6933205 L147.628541,71.6933205 C146.583493,71.6933205 145.71262,70.8249322 145.71262,69.9565439 C145.71262,69.0881555 146.583493,68.2197672 147.628541,68.2197672 L159.298244,68.2197672 C160.343292,68.2197672 161.039991,69.0881555 161.039991,69.9565439 C161.039991,70.8249322 160.343292,71.6933205 159.298244,71.6933205 Z" id="Shape" fill="#7AC7FF"></path>
                            <path d="M165.394358,78.4667495 L163.304262,78.4667495 C162.259214,78.4667495 161.562515,77.5983612 161.562515,76.7299729 C161.562515,75.8615845 162.433388,74.9931962 163.304262,74.9931962 L165.394358,74.9931962 C166.439406,74.9931962 167.136104,75.8615845 167.136104,76.7299729 C167.136104,77.5983612 166.439406,78.4667495 165.394358,78.4667495 Z" id="Shape" fill="#0483DA"></path>
                            <path d="M168.877851,92.1872853 L154.421354,92.1872853 C153.376306,92.1872853 152.505432,91.3188969 152.505432,90.4505086 C152.505432,89.5821203 153.376306,88.7137319 154.421354,88.7137319 L168.877851,88.7137319 C169.922899,88.7137319 170.619598,89.5821203 170.619598,90.4505086 C170.619598,91.3188969 169.922899,92.1872853 168.877851,92.1872853 Z" id="Shape" fill="#B8D432"></path>
                            <path d="M174.451441,85.4138562 L154.595528,85.4138562 C153.55048,85.4138562 152.679607,84.5454679 152.679607,83.6770796 C152.679607,82.8086912 153.55048,81.9403029 154.595528,81.9403029 L174.451441,81.9403029 C175.496489,81.9403029 176.193187,82.8086912 176.193187,83.6770796 C176.193187,84.5454679 175.322314,85.4138562 174.451441,85.4138562 Z" id="Shape" fill="#7AC7FF"></path>
                            <path d="M179.850855,85.4138562 C179.328331,85.4138562 178.979982,85.2401786 178.631633,84.8928232 C178.457458,84.7191456 178.283283,84.5454679 178.283283,84.3717902 C178.109109,84.1981126 178.109109,83.8507572 178.109109,83.6770796 C178.109109,83.5034019 178.109109,83.1560466 178.283283,82.9823689 C178.283283,82.8086912 178.457458,82.6350136 178.631633,82.4613359 C179.154157,81.9403029 180.02503,81.7666252 180.547554,82.1139806 C180.721729,82.2876582 180.895903,82.2876582 181.070078,82.4613359 C181.244253,82.6350136 181.418427,82.8086912 181.418427,82.9823689 C181.418427,83.1560466 181.592602,83.5034019 181.592602,83.6770796 C181.592602,83.8507572 181.592602,84.1981126 181.418427,84.3717902 C181.244253,84.5454679 181.244253,84.7191456 181.070078,84.8928232 C180.721729,85.2401786 180.373379,85.4138562 179.850855,85.4138562 Z" id="Shape" fill="#E7E7E7"></path>
                            <path d="M170.271248,78.4667495 C169.748724,78.4667495 169.400375,78.2930719 168.877851,77.9457165 C168.355327,77.5983612 168.355327,77.0773282 168.355327,76.7299729 C168.355327,76.3826175 168.529502,75.8615845 168.877851,75.5142292 C169.052026,75.3405515 169.2262,75.1668739 169.400375,75.1668739 C169.922899,74.9931962 170.271248,74.9931962 170.793773,75.1668739 C170.967947,75.1668739 171.142122,75.3405515 171.316297,75.5142292 C171.664646,75.8615845 171.838821,76.3826175 171.838821,76.7299729 C171.838821,77.0773282 171.664646,77.5983612 171.316297,77.9457165 C170.967947,78.2930719 170.793773,78.4667495 170.271248,78.4667495 Z" id="Shape" fill="#E7E7E7"></path>
                            <path d="M185.424445,7.43258363 L180.547554,7.43258363 C179.502506,7.43258363 178.805807,6.5641953 178.805807,5.52212929 C178.805807,4.48006329 179.676681,3.61167495 180.547554,3.61167495 L185.424445,3.61167495 C186.469493,3.61167495 187.166191,4.48006329 187.166191,5.52212929 C187.166191,6.5641953 186.295318,7.43258363 185.424445,7.43258363 Z" id="Shape" fill="#D0D5D6"></path>
                            <ellipse id="Oval" fill="#D0D5D6" cx="173.058043" cy="5.52212929" rx="2.78679472" ry="2.77884268"></ellipse>
                        </g>
                        <rect id="Rectangle-4" fill-opacity="0.241932745" fill="#000000" x="0" y="0" width="192.153191" height="115.58209"></rect>
                        <polygon id="Shape" fill="#A8A8A8" fill-rule="nonzero" opacity="0.1" points="0 114.517857 0 1.08035714 150.036266 114.517857"></polygon>
                        <path d="M212,119.919643 C212,119.919643 207.312925,119.919643 197.938776,119.919643" id="Shape" fill="#A8A8A8" fill-rule="nonzero" opacity="0.5"></path>
                        <polygon id="Shape" fill="#F0F0F0" fill-rule="nonzero" opacity="0.567589286" points="54.0816327 89.6696429 54.0816327 101.553571 61.6530612 95.6977226"></polygon>
                    </g>
                    <g filter="url(#filter-4)">
                        <g id="Group">
                            <rect id="Rectangle-path" fill="#F0F0F0" fill-rule="nonzero" x="0.114036682" y="0.153891233" width="213.537665" height="129.846109"></rect>
                            <rect id="Rectangle" fill-opacity="0.481289629" fill="#D0D5D6" x="0" y="84.2592593" width="214" height="45.7407407"></rect>
                            <rect id="Rectangle-path" fill="#FFFFFF" fill-rule="nonzero" x="0.114036682" y="0.153891233" width="213.537665" height="12.1909283"></rect>
                            <path d="M33.0255535,8.28117675 L16.1826008,8.28117675 C15.0210178,8.28117675 14.0530321,7.31364276 14.0530321,6.15260197 C14.0530321,4.99156118 15.0210178,4.02402719 16.1826008,4.02402719 L33.0255535,4.02402719 C34.1871365,4.02402719 35.1551223,4.99156118 35.1551223,6.15260197 C35.1551223,7.31364276 33.9935393,8.28117675 33.0255535,8.28117675 Z" id="Shape" fill="#D0D5D6" fill-rule="nonzero"></path>
                            <path d="M47.3517432,8.28117675 L41.9310228,8.28117675 C40.7694399,8.28117675 39.8014541,7.31364276 39.8014541,6.15260197 C39.8014541,4.99156118 40.7694399,4.02402719 41.9310228,4.02402719 L47.3517432,4.02402719 C48.5133262,4.02402719 49.481312,4.99156118 49.481312,6.15260197 C49.481312,7.31364276 48.5133262,8.28117675 47.3517432,8.28117675 Z" id="Shape" fill="#D0D5D6" fill-rule="nonzero"></path>
                            <path d="M61.8715301,8.28117675 L56.4508096,8.28117675 C55.2892267,8.28117675 54.3212409,7.31364276 54.3212409,6.15260197 C54.3212409,4.99156118 55.2892267,4.02402719 56.4508096,4.02402719 L61.8715301,4.02402719 C63.033113,4.02402719 64.0010988,4.99156118 64.0010988,6.15260197 C64.0010988,7.31364276 63.033113,8.28117675 61.8715301,8.28117675 Z" id="Shape" fill="#D0D5D6" fill-rule="nonzero"></path>
                            <path d="M76.3913169,8.28117675 L70.9705965,8.28117675 C69.8090135,8.28117675 68.8410278,7.31364276 68.8410278,6.15260197 C68.8410278,4.99156118 69.8090135,4.02402719 70.9705965,4.02402719 L76.3913169,4.02402719 C77.5528999,4.02402719 78.5208857,4.99156118 78.5208857,6.15260197 C78.5208857,7.31364276 77.5528999,8.28117675 76.3913169,8.28117675 Z" id="Shape" fill="#D0D5D6" fill-rule="nonzero"></path>
                            <rect id="Rectangle-path" fill="#F25022" fill-rule="nonzero" x="3.21159121" y="3.25" width="3.09755453" height="3.09610877"></rect>
                            <rect id="Rectangle-path" fill="#7FBA00" fill-rule="nonzero" x="6.30914574" y="3.25" width="3.09755453" height="3.09610877"></rect>
                            <rect id="Rectangle-path" fill="#00A4EF" fill-rule="nonzero" x="3.21159121" y="6.15260197" width="3.09755453" height="3.09610877"></rect>
                            <rect id="Rectangle-path" fill="#FFB900" fill-rule="nonzero" x="6.30914574" y="6.15260197" width="3.09755453" height="3.09610877"></rect>
                            <path d="M206.101413,8.28117675 L200.680692,8.28117675 C199.519109,8.28117675 198.744721,7.31364276 198.744721,6.15260197 C198.744721,4.99156118 199.712707,4.02402719 200.680692,4.02402719 L206.101413,4.02402719 C207.262996,4.02402719 208.037384,4.99156118 208.037384,6.15260197 C208.037384,7.31364276 207.069399,8.28117675 206.101413,8.28117675 Z" id="Shape" fill="#D0D5D6" fill-rule="nonzero"></path>
                            <ellipse id="Oval" fill="#D0D5D6" fill-rule="nonzero" cx="192.356015" cy="6.15260197" rx="3.09755453" ry="3.09610877"></ellipse>
                        </g>
                        <polygon id="Rectangle-2" fill="#B8D432" points="161.345334 28.8888889 172.879385 28.8888889 174.926966 30.6944444 172.879385 32.5 161.345334 32.5 159.297753 30.6944444"></polygon>
                        <g id="Group-18" transform="translate(32.460674, 22.870370)">
                            <g id="Group-17" transform="translate(33.662921, 6.018519)" fill-rule="nonzero">
                                <path d="M45.2532888,9.02777778 L1.10129685,9.02777778 C0.500589478,9.02777778 0,8.27546296 0,7.52314815 C0,6.77083333 0.500589478,6.01851852 1.10129685,6.01851852 L45.2532888,6.01851852 C45.8539962,6.01851852 46.3545857,6.77083333 46.3545857,7.52314815 C46.3545857,8.27546296 45.8539962,9.02777778 45.2532888,9.02777778 Z" id="Shape" fill="#CFCFCF" opacity="0.692522321"></path>
                                <path d="M84.4846228,18.6574074 L2.05604171,18.6574074 C0.934564411,18.6574074 0,17.9050926 0,17.1527778 C0,16.400463 0.934564411,15.6481481 2.05604171,15.6481481 L84.4846228,15.6481481 C85.6061001,15.6481481 86.5406645,16.400463 86.5406645,17.1527778 C86.5406645,17.9050926 85.6061001,18.6574074 84.4846228,18.6574074 Z" id="Shape" fill="#CFCFCF" opacity="0.692522321"></path>
                                <path d="M84.4846228,24.6759259 L2.05604171,24.6759259 C0.934564411,24.6759259 0,23.9236111 0,23.1712963 C0,22.4189815 0.934564411,21.6666667 2.05604171,21.6666667 L84.4846228,21.6666667 C85.6061001,21.6666667 86.5406645,22.4189815 86.5406645,23.1712963 C86.5406645,23.9236111 85.6061001,24.6759259 84.4846228,24.6759259 Z" id="Shape" fill="#CFCFCF" opacity="0.692522321"></path>
                                <path d="M84.4846228,30.6944444 L2.05604171,30.6944444 C0.934564411,30.6944444 0,29.9421296 0,29.1898148 C0,28.4375 0.934564411,27.6851852 2.05604171,27.6851852 L84.4846228,27.6851852 C85.6061001,27.6851852 86.5406645,28.4375 86.5406645,29.1898148 C86.5406645,29.9421296 85.6061001,30.6944444 84.4846228,30.6944444 Z" id="Shape" fill="#CFCFCF" opacity="0.692522321"></path>
                                <path d="M84.4846228,36.712963 L2.05604171,36.712963 C0.934564411,36.712963 0,35.9606481 0,35.2083333 C0,34.4560185 0.934564411,33.7037037 2.05604171,33.7037037 L84.4846228,33.7037037 C85.6061001,33.7037037 86.5406645,34.4560185 86.5406645,35.2083333 C86.5406645,35.9606481 85.6061001,36.712963 84.4846228,36.712963 Z" id="Shape" fill="#CFCFCF" opacity="0.692522321"></path>
                                <path d="M84.4846228,42.7314815 L2.05604171,42.7314815 C0.934564411,42.7314815 0,41.9791667 0,41.2268519 C0,40.474537 0.934564411,39.7222222 2.05604171,39.7222222 L84.4846228,39.7222222 C85.6061001,39.7222222 86.5406645,40.474537 86.5406645,41.2268519 C86.5406645,41.9791667 85.6061001,42.7314815 84.4846228,42.7314815 Z" id="Shape" fill="#CFCFCF" opacity="0.692522321"></path>
                                <path d="M84.4846228,48.75 L2.05604171,48.75 C0.934564411,48.75 0,47.9976852 0,47.2453704 C0,46.4930556 0.934564411,45.7407407 2.05604171,45.7407407 L84.4846228,45.7407407 C85.6061001,45.7407407 86.5406645,46.4930556 86.5406645,47.2453704 C86.5406645,47.9976852 85.6061001,48.75 84.4846228,48.75 Z" id="Shape" fill="#CFCFCF" opacity="0.692522321"></path>
                                <path d="M49.8866816,3.61111111 L1.80994763,3.61111111 C0.791852089,3.61111111 0,2.82118056 0,1.80555556 C0,0.789930556 0.791852089,0 1.80994763,0 L49.8866816,0 C50.9047771,0 51.6966292,0.789930556 51.6966292,1.80555556 C51.6966292,2.82118056 50.9047771,3.61111111 49.8866816,3.61111111 Z" id="Shape" fill="#A8A8A8"></path>
                            </g>
                            <g id="Group-16" transform="translate(8.415730, 0.000000)" fill="#7AC7FF" opacity="0.715178571">
                                <g id="Group-13">
                                    <path d="M8.41515167,0.347144828 L15.0239762,4.16737405 C15.3949504,4.38181557 15.6234313,4.77779585 15.6234313,5.20628973 L15.6234313,12.8492658 C15.6234313,13.2777597 15.3949504,13.67374 15.0239762,13.8881815 L8.41515167,17.7084107 C8.04359351,17.9231898 7.58561998,17.9231898 7.21406182,17.7084107 L0.60523725,13.8881815 C0.234263072,13.67374 0.00578217374,13.2777597 0.00578217374,12.8492658 L0.00578217374,5.20628973 C0.00578217374,4.77779585 0.234263072,4.38181557 0.60523725,4.16737405 L7.21406182,0.347144828 C7.58561998,0.132365737 8.04359351,0.132365737 8.41515167,0.347144828 Z" id="Polygon"></path>
                                </g>
                            </g>
                            <rect id="Rectangle-18" fill="#FFFFFF" opacity="0.736830357" x="0" y="67.4074074" width="146.674157" height="39.7222222"></rect>
                            <g id="Group-17" transform="translate(33.662921, 74.629630)" fill-rule="nonzero">
                                <path d="M45.2532888,9.02777778 L1.10129685,9.02777778 C0.500589478,9.02777778 0,8.27546296 0,7.52314815 C0,6.77083333 0.500589478,6.01851852 1.10129685,6.01851852 L45.2532888,6.01851852 C45.8539962,6.01851852 46.3545857,6.77083333 46.3545857,7.52314815 C46.3545857,8.27546296 45.8539962,9.02777778 45.2532888,9.02777778 Z" id="Shape" fill="#CFCFCF" opacity="0.692522321"></path>
                                <path d="M84.4846228,18.6574074 L2.05604171,18.6574074 C0.934564411,18.6574074 0,17.9050926 0,17.1527778 C0,16.400463 0.934564411,15.6481481 2.05604171,15.6481481 L84.4846228,15.6481481 C85.6061001,15.6481481 86.5406645,16.400463 86.5406645,17.1527778 C86.5406645,17.9050926 85.6061001,18.6574074 84.4846228,18.6574074 Z" id="Shape" fill="#CFCFCF" opacity="0.692522321"></path>
                                <path d="M84.4846228,24.6759259 L2.05604171,24.6759259 C0.934564411,24.6759259 0,23.9236111 0,23.1712963 C0,22.4189815 0.934564411,21.6666667 2.05604171,21.6666667 L84.4846228,21.6666667 C85.6061001,21.6666667 86.5406645,22.4189815 86.5406645,23.1712963 C86.5406645,23.9236111 85.6061001,24.6759259 84.4846228,24.6759259 Z" id="Shape" fill="#CFCFCF" opacity="0.692522321"></path>
                                <path d="M84.4846228,30.6944444 L2.05604171,30.6944444 C0.934564411,30.6944444 0,29.9421296 0,29.1898148 C0,28.4375 0.934564411,27.6851852 2.05604171,27.6851852 L84.4846228,27.6851852 C85.6061001,27.6851852 86.5406645,28.4375 86.5406645,29.1898148 C86.5406645,29.9421296 85.6061001,30.6944444 84.4846228,30.6944444 Z" id="Shape" fill="#CFCFCF" opacity="0.692522321"></path>
                                <path d="M49.8866816,3.61111111 L1.80994763,3.61111111 C0.791852089,3.61111111 0,2.82118056 0,1.80555556 C0,0.789930556 0.791852089,0 1.80994763,0 L49.8866816,0 C50.9047771,0 51.6966292,0.789930556 51.6966292,1.80555556 C51.6966292,2.82118056 50.9047771,3.61111111 49.8866816,3.61111111 Z" id="Shape" fill="#A8A8A8"></path>
                            </g>
                            <g id="Group-15" transform="translate(8.415730, 72.222222)" fill="#0483DA" opacity="0.435770089">
                                <g id="Group-14">
                                    <ellipse id="Oval-2" cx="7.81460674" cy="7.82407407" rx="7.81460674" ry="7.82407407"></ellipse>
                                </g>
                            </g>
                        </g>
                        <polygon id="Rectangle-2" fill="#B8D432" points="161.946458 97.5 173.480509 97.5 175.52809 99.3055556 173.480509 101.111111 161.946458 101.111111 159.898876 99.3055556"></polygon>
                    </g>
                    <circle id="Oval" fill="#0483DA" fill-rule="nonzero" cx="19.5" cy="145.5" r="2.5"></circle>
                </g>
            </g>
        </g>
    </g>
</svg>