<?xml version="1.0" encoding="UTF-8"?>
<svg width="100px" height="118px" viewBox="0 0 100 118" version="1.1" xmlns="http://www.w3.org/2000/svg" xmlns:xlink="http://www.w3.org/1999/xlink">
    <!-- Generator: Sketch 51.3 (57544) - http://www.bohemiancoding.com/sketch -->
    <title>administering-containers</title>
    <desc>Created with Sketch.</desc>
    <defs>
        <path d="M44.5234375,1.54914609 C46.2234375,0.516382029 48.1109375,0 50,0 C51.8890625,0 53.778125,0.516382029 55.475,1.54914609 L94.365625,25.1853599 C97.846875,27.3028615 100,31.2629081 100,35.5582677 L100,82.4417323 C100,86.7354153 97.846875,90.698815 94.365625,92.8146401 L55.475,116.45253 C53.778125,117.483618 51.8890625,118 50,118 C48.1109375,118 46.2234375,117.483618 44.5234375,116.45253 L5.634375,92.8146401 C2.1515625,90.698815 0,86.7354153 0,82.4417323 L0,35.5582677 C0,31.2629081 2.1515625,27.3028615 5.634375,25.1853599 L44.5234375,1.54914609 Z" id="path-1"></path>
        <filter x="-1.2%" y="-2.1%" width="102.4%" height="108.5%" filterUnits="objectBoundingBox" id="filter-3">
            <feOffset dx="0" dy="2" in="SourceAlpha" result="shadowOffsetOuter1"></feOffset>
            <feColorMatrix values="0 0 0 0 0   0 0 0 0 0   0 0 0 0 0  0 0 0 0.204625226 0" type="matrix" in="shadowOffsetOuter1" result="shadowMatrixOuter1"></feColorMatrix>
            <feMerge>
                <feMergeNode in="shadowMatrixOuter1"></feMergeNode>
                <feMergeNode in="SourceGraphic"></feMergeNode>
            </feMerge>
        </filter>
    </defs>
    <g id="Badges-FINAL" stroke="none" stroke-width="1" fill="none" fill-rule="evenodd">
        <g id="Administering-Containers" transform="translate(-578.000000, -118.000000)">
            <g id="administering-containers" transform="translate(578.000000, 118.000000)">
                <mask id="mask-2" fill="white">
                    <use xlink:href="#path-1"></use>
                </mask>
                <use id="Trophy-1" fill="#C0DDF4" xlink:href="#path-1"></use>
                <path d="M19.0088401,43.5753287 L10.1050739,43.5753287 C7.10478664,43.5753287 4.66388344,41.1344255 4.66388344,38.1341383 C4.66388344,35.133851 7.10478664,32.6929478 10.1050739,32.6929478 C10.3804179,32.6929478 10.6572113,32.7178239 10.9542953,32.7702374 C12.006399,29.2059757 15.252079,26.7571036 19.0088401,26.7571036 C23.6457336,26.7571036 27.4179527,30.5293227 27.4179527,35.1662162 C27.4179527,39.8031097 23.6457336,43.5753287 19.0088401,43.5753287 Z" id="Cloud" fill="#FFFFFF" fill-rule="nonzero" opacity="0.800000012" mask="url(#mask-2)"></path>
                <g id="Boat" filter="url(#filter-3)" mask="url(#mask-2)">
                    <g transform="translate(7.109091, 32.086195)">
                        <polygon id="Fill-555" fill="#0082BA" points="54.7285011 31.2734292 67.7590966 31.2734292 67.7590966 23.4550719 54.7285011 23.4550719"></polygon>
                        <polygon id="Fill-556" fill="#0082BA" points="28.6673101 23.4550719 41.6979056 23.4550719 41.6979056 15.6367146 28.6673101 15.6367146"></polygon>
                        <polygon id="Fill-557" fill="#DF5142" points="54.7285011 23.4550719 67.7590966 23.4550719 67.7590966 15.6367146 54.7285011 15.6367146"></polygon>
                        <polygon id="Fill-558" fill="#DF5142" points="28.6673101 15.6367146 41.6979056 15.6367146 41.6979056 7.8183573 28.6673101 7.8183573"></polygon>
                        <polygon id="Fill-559" fill="#EFB252" points="41.6979056 23.4550719 54.7285011 23.4550719 54.7285011 15.6367146 41.6979056 15.6367146"></polygon>
                        <polygon id="Fill-560" fill="#EFB252" points="28.6673101 31.2734292 41.6979056 31.2734292 41.6979056 23.4550719 28.6673101 23.4550719"></polygon>
                        <polygon id="Fill-561" fill="#7CB65A" points="41.6979056 31.2734292 54.7285011 31.2734292 54.7285011 23.4550719 41.6979056 23.4550719"></polygon>
                        <polygon id="Fill-562" fill="#7CB65A" points="67.7590966 23.4550719 80.7896921 23.4550719 80.7896921 15.6367146 67.7590966 15.6367146"></polygon>
                        <polygon id="Fill-563" fill="#546670" points="54.7285011 15.6367146 67.7590966 15.6367146 67.7590966 7.8183573 54.7285011 7.8183573"></polygon>
                        <path d="M13.0305955,6.51529775 C12.3113066,6.51529775 11.727536,5.93283013 11.727536,5.2122382 L11.727536,3.90917865 C11.727536,3.18858672 12.3113066,2.6061191 13.0305955,2.6061191 C13.7498844,2.6061191 14.3336551,3.18858672 14.3336551,3.90917865 L14.3336551,5.2122382 C14.3336551,5.93283013 13.7498844,6.51529775 13.0305955,6.51529775" id="Fill-564" fill="#30404D"></path>
                        <path d="M18.2428337,6.51529775 C17.5235448,6.51529775 16.9397742,5.93283013 16.9397742,5.2122382 L16.9397742,1.30305955 C16.9397742,0.582467619 17.5235448,0 18.2428337,0 C18.9621226,0 19.5458933,0.582467619 19.5458933,1.30305955 L19.5458933,5.2122382 C19.5458933,5.93283013 18.9621226,6.51529775 18.2428337,6.51529775 Z" id="Fill-565" fill="#30404D"></path>
                        <path d="M24.7581315,5.2122382 L11.727536,5.2122382 C11.0082471,5.2122382 10.4244764,5.79600888 10.4244764,6.51529775 L10.4244764,32.5764888 C10.4244764,33.2957776 11.0082471,33.8795483 11.727536,33.8795483 L24.7581315,33.8795483 C25.4774203,33.8795483 26.061191,33.2957776 26.061191,32.5764888 L26.061191,6.51529775 C26.061191,5.79600888 25.4774203,5.2122382 24.7581315,5.2122382" id="Fill-566" fill="#ADBDC4"></path>
                        <polygon id="Fill-567" fill="#CC9547" points="41.6979056 23.4550719 54.7285011 23.4550719 54.7285011 22.1520124 41.6979056 22.1520124"></polygon>
                        <polygon id="Fill-568" fill="#0074B0" points="28.6673101 23.4550719 41.6979056 23.4550719 41.6979056 22.1520124 28.6673101 22.1520124"></polygon>
                        <polygon id="Fill-569" fill="#0074B0" points="54.7285011 28.6673101 67.7590966 28.6673101 67.7590966 27.3642506 54.7285011 27.3642506"></polygon>
                        <polygon id="Fill-570" fill="#30404D" points="54.7285011 15.6367146 67.7590966 15.6367146 67.7590966 14.3336551 54.7285011 14.3336551"></polygon>
                        <polygon id="Fill-571" fill="#69994E" points="41.6979056 28.6673101 54.7285011 28.6673101 54.7285011 27.3642506 41.6979056 27.3642506"></polygon>
                        <polygon id="Fill-572" fill="#69994E" points="67.7590966 23.4550719 80.7896921 23.4550719 80.7896921 22.1520124 67.7590966 22.1520124"></polygon>
                        <polygon id="Fill-573" fill="#C2423D" points="54.7285011 23.4550719 67.7590966 23.4550719 67.7590966 22.1520124 54.7285011 22.1520124"></polygon>
                        <polygon id="Fill-574" fill="#C2423D" points="28.6673101 15.6367146 41.6979056 15.6367146 41.6979056 14.3336551 28.6673101 14.3336551"></polygon>
                        <polygon id="Fill-575" fill="#CC9547" points="28.6673101 28.6673101 41.6979056 28.6673101 41.6979056 27.3642506 28.6673101 27.3642506"></polygon>
                        <path d="M62.5468584,46.9101438 L5.2122382,46.9101438 C3.97042245,46.9101438 2.90061056,46.0331847 2.65693842,44.8161271 L0.0508193225,31.7855316 C-0.102941704,31.0193326 0.0951233472,30.2244663 0.590285976,29.6211497 C1.08544861,29.0178331 1.82558643,28.6673101 2.6061191,28.6673101 L59.9407393,28.6673101 L63.0680822,24.4975195 C63.5593357,23.8420806 64.3333531,23.4550719 65.1529775,23.4550719 L80.7896921,23.4550719 C82.2282699,23.4550719 83.3958112,24.6213102 83.3958112,26.061191 C83.3958112,37.5567824 74.0424498,46.9101438 62.5468584,46.9101438" id="Fill-576" fill="#30404D"></path>
                        <path d="M2.0327729,41.6979056 L2.65693842,44.8161271 C2.90061056,46.0331847 3.97042245,46.9101438 5.2122382,46.9101438 L62.5468584,46.9101438 C67.8138251,46.9101438 72.6169026,44.9307964 76.2902275,41.6979056 L2.0327729,41.6979056" id="Fill-577" fill="#DF5142"></path>
                        <path d="M20.8489528,6.51529775 C19.409072,6.51529775 18.2428337,7.68153605 18.2428337,9.12141685 L18.2428337,24.7581315 C18.2428337,26.1980123 17.0765954,27.3642506 15.6367146,27.3642506 L10.4244764,27.3642506 L10.4244764,28.6673101 L26.061191,28.6673101 L26.061191,6.51529775 L20.8489528,6.51529775" id="Fill-578" fill="#8BA6B1"></path>
                        <path d="M26.061191,9.12141685 L20.8489528,9.12141685 C20.1322701,9.12141685 19.5458933,9.70779365 19.5458933,10.4244764 L19.5458933,11.727536 C19.5458933,12.4442187 20.1322701,13.0305955 20.8489528,13.0305955 L26.061191,13.0305955 L26.061191,9.12141685" id="Fill-579" fill="#8BD0E9"></path>
                        <path d="M10.4244764,28.6673101 L5.2122382,28.6673101 L5.2122382,19.5458933 C5.2122382,18.8266044 5.79600888,18.2428337 6.51529775,18.2428337 L10.4244764,18.2428337 L10.4244764,28.6673101" id="Fill-580" fill="#ADBDC4"></path>
                        <path d="M7.8183573,20.8489528 L7.8183573,24.7581315 C7.8183573,25.4774203 7.23458662,26.061191 6.51529775,26.061191 L5.2122382,26.061191 L5.2122382,28.6673101 L10.4244764,28.6673101 L10.4244764,19.5458933 L9.12141685,19.5458933 C8.40212798,19.5458933 7.8183573,20.1296639 7.8183573,20.8489528" id="Fill-581" fill="#8BA6B1"></path>
                    </g>
                </g>
                <path d="M76.6325873,35.1662162 L59.7371556,35.1662162 C56.7428024,35.1662162 54.3064811,32.7298949 54.3064811,29.7355417 C54.3064811,27.4055832 55.7961453,25.3581828 57.9799643,24.613052 C58.4357608,19.6694064 62.5729995,15.8571514 67.5814632,15.8571514 C72.4626499,15.8571514 76.5662969,19.5365299 77.1534976,24.329619 C79.9044842,24.5927232 82.0632618,26.9167863 82.0632618,29.7355417 C82.0632618,32.7298949 79.6269405,35.1662162 76.6325873,35.1662162 Z" id="Cloud" fill="#FFFFFF" fill-rule="nonzero" opacity="0.900000036" mask="url(#mask-2)"></path>
                <path d="M6.47697171,76.4133538 C8.06073675,76.992265 9.35236213,77.5010701 11.9525777,77.5010701 C14.5527932,77.5010701 15.8613834,77.0216621 17.4281837,76.4133538 C19.2759095,75.5178361 22.0164442,75 24.9086556,75 C27.7952601,75 30.5359384,75.5178534 32.3835206,76.4133538 C33.9503208,76.992265 35.258911,77.5010701 37.8591265,77.5010701 C40.4593421,77.5010701 41.7565745,77.0216621 43.3347325,76.4133538 C45.182329,75.5178361 47.9230074,75 50.8152188,75 C53.7018233,75 56.4425017,75.5178534 58.2900838,76.4133538 C59.856884,76.992265 61.1654742,77.5010701 63.7656898,77.5010701 C66.3659053,77.5010701 67.6744955,77.0216621 69.2581168,76.4133538 C71.1058427,75.5178361 73.8407702,75 76.7273747,75 C79.6139791,75 82.3546575,75.5178534 84.1966326,76.4133538 C85.7803977,76.992265 87.072023,77.5010701 89.6890596,77.5010701 C92.3060962,77.5010701 93.5978654,77.0216621 95.1814866,76.4133538 C96.4548366,75.8045753 98.1392065,75.370889 100,75.155164 L100,119 L0,119 L0,75.023499 C2.50624106,75.1340155 4.82926931,75.6279948 6.47697171,76.4133538 Z" id="Water" fill="#0078D4" mask="url(#mask-2)"></path>
                <g id="Azure-Hex-Border" mask="url(#mask-2)" stroke="#0078D4" stroke-width="4">
                    <path d="M45.5620172,3.25834249 L6.67338401,26.8942953 C3.79673288,28.6432593 2,31.9508238 2,35.5582677 L2,82.4417323 C2,86.0486597 3.79764663,89.3586805 6.67318764,91.1055853 L45.560618,114.742485 C46.9289662,115.572418 48.4546283,116 50,116 C51.5458817,116 53.0723633,115.572188 54.4362178,114.743457 L93.3268764,91.1055464 C96.2016145,89.3583456 98,86.0476286 98,82.4417323 L98,35.5582677 C98,31.9518547 96.202529,28.6435953 93.3268966,26.8944659 L54.4351916,3.25759524 C53.0721095,2.42798656 51.5462432,2 50,2 C48.4543284,2 46.9293388,2.42772325 45.5620146,3.25834407 Z M45.5620146,3.25834407 C45.5619597,3.25837737 45.5619049,3.25841067 45.5618501,3.25844398 L45.5621963,3.25823359 L45.5620172,3.25834249 Z"></path>
                </g>
            </g>
        </g>
    </g>
</svg>