<svg width="230" height="135" xmlns="http://www.w3.org/2000/svg" xmlns:xlink="http://www.w3.org/1999/xlink">
  <defs>
    <rect id="b" x="14" width="79" height="102" rx="3"/>
    <filter x="-7.6%" y="-4.9%" width="117.7%" height="113.7%" filterUnits="objectBoundingBox" id="a">
      <feOffset dx="1" dy="2" in="SourceAlpha" result="shadowOffsetOuter1"/>
      <feGaussianBlur stdDeviation="2" in="shadowOffsetOuter1" result="shadowBlurOuter1"/>
      <feColorMatrix values="0 0 0 0 0 0 0 0 0 0 0 0 0 0 0 0 0 0 0.130066803 0" in="shadowBlurOuter1"/>
    </filter>
    <filter x="-14.7%" y="-12.5%" width="147.1%" height="150%" filterUnits="objectBoundingBox" id="c">
      <feOffset dx="3" dy="4" in="SourceAlpha" result="shadowOffsetOuter1"/>
      <feGaussianBlur stdDeviation="2" in="shadowOffsetOuter1" result="shadowBlurOuter1"/>
      <feColorMatrix values="0 0 0 0 0 0 0 0 0 0 0 0 0 0 0 0 0 0 0.0667742301 0" in="shadowBlurOuter1" result="shadowMatrixOuter1"/>
      <feMerge>
        <feMergeNode in="shadowMatrixOuter1"/>
        <feMergeNode in="SourceGraphic"/>
      </feMerge>
    </filter>
  </defs>
  <g fill="none" fill-rule="evenodd">
    <g transform="rotate(-11 97.031 66.992)">
      <use fill="#000" filter="url(#a)" xlink:href="#b"/>
      <use fill="#F0F2F4" xlink:href="#b"/>
    </g>
    <g transform="rotate(-11 158.729 -54.247)" fill="#D5D9DD">
      <rect width="62" height="3" rx="1.5"/>
      <rect y="12" width="62" height="3" rx="1.5"/>
      <rect y="24" width="62" height="3" rx="1.5"/>
      <rect y="35" width="62" height="3" rx="1.5"/>
      <rect y="47" width="62" height="3" rx="1.5"/>
      <rect y="59" width="62" height="3" rx="1.5"/>
      <rect y="71" width="62" height="3" rx="1.5"/>
    </g>
    <g filter="url(#c)" transform="rotate(-9 632.012 14.25)">
      <path d="M31.634 26.193l2.13-2.27c.113-.182.128-.547 0-.743-.17-.266-21.312-19.76-21.965-20.363 0 .182.07.308.07.504.1 1.598-1.575 2.51-2.57 2.117-.098.154.171.462-.013 1.12-.199.772-1.108 1.71-1.846 2.005-.37.154-.824.196-1.179.056v.014c-.127.266.44 1.051-.51 2.06-.81.855-1.491.617-2.031.617.085.07 21.723 20.167 21.965 20.321.326.21.625.098.866-.112l.596-.63c.483-.505.966-1.024 1.449-1.528l3.038-3.168z" fill="#57B6FF"/>
      <path d="M8.704 7.596c-.37.434-.838.813-1.264.981-.37.154-.824.196-1.179.056v.014c-.127.266.44 1.051-.51 2.06-.81.855-1.491.617-2.031.617.085.07 21.71 20.167 21.95 20.321.341.21.625.098.867-.112l.596-.63c.483-.505.966-1.024 1.448-1.528l1.69-1.78-21.567-20z" fill="#0C94FF"/>
      <path d="M6.276 8.647s.937.533 2.144-.7c.426-.435.766-.968.866-1.388.17-.673-.085-.967.014-1.121.994.392 2.67-.519 2.57-2.117-.014-.196-.071-.322-.071-.504-.227-.14-3.223-.757-3.564-.827-.61-.126-1.164-.266-1.775-.392-.312-.07-.568-.126-.894-.197-.185-.042-.781-.196-.937-.182.255.729-.795 2.088-1.605 2.677-.454.308-.994.63-1.391.505 0 .07 0 .028.014.098l1.775 5.928c.057.21.199.743.312.897.54 0 1.221.238 2.03-.617.952-.995.54-1.934.512-2.06z" fill="#F7E0A2"/>
      <path d="M6.276 8.647s.937.533 2.144-.7c.099-.099.184-.197.27-.309L3.82 3.153a4.212 4.212 0 0 1-.796.73c-.454.307-.994.63-1.391.504 0 .07 0 .028.014.098l1.775 5.928c.057.21.199.743.312.897.54 0 1.221.238 2.03-.617.952-.98.54-1.92.512-2.046z" fill="#F4C02E"/>
      <path d="M1.633 4.4c.397.127.937-.196 1.391-.504.81-.575 1.86-1.948 1.605-2.677L3.549.911C3.224.841.356.126.186.028l-.057.07C.24.266.256.42.327.603L1.633 4.4z" fill="#000" fill-rule="nonzero"/>
      <path d="M3.748 3.251c.583-.658 1.065-1.5.895-2.018L3.563.925C3.28.869.91.266.328.085L3.748 3.25z" fill="#1A1A1A"/>
    </g>
    <g>
      <path fill="#128912" d="M65.7 50.777l-3.1-3.093 3.1-3.093 3.1 3.093z"/>
      <path fill="#69E66E" d="M155.784 41.498l-3.1-3.093 3.1-3.093 3.1 3.093z"/>
      <path fill="#128912" d="M70.66 129.907l3.1 3.093 3.1-3.093-3.1-3.093z"/>
      <path fill="#69E66E" d="M103.21 32.219l-4.65-4.64 4.65-4.64 4.65 4.64zM162.11 129.907l-4.65-4.64 4.65-4.639 4.65 4.64z"/>
      <path fill="#FFB901" d="M129.25 26.29l6.2 6.187 6.2-6.186-6.2-6.186z"/>
      <path fill="#128912" d="M44 81.707l6.2 6.186 6.2-6.186-6.2-6.187zM216.05 53.87l-6.2-6.186 6.2-6.186 6.2 6.186z"/>
      <path d="M212.95 118.823a3.097 3.097 0 0 1-3.1 3.093 3.097 3.097 0 0 1-3.1-3.093 3.098 3.098 0 0 1 3.1-3.093c1.711 0 3.1 1.386 3.1 3.093" fill="#FF9A00"/>
      <path d="M181.956 32.8a3.098 3.098 0 0 1-3.1 3.092 3.098 3.098 0 0 1-3.1-3.093 3.097 3.097 0 0 1 3.1-3.093c1.711 0 3.1 1.384 3.1 3.093M230 84.8a3.097 3.097 0 0 1-3.1 3.093 3.097 3.097 0 0 1-3.1-3.093 3.098 3.098 0 0 1 3.1-3.093c1.711 0 3.1 1.386 3.1 3.093" fill="#1E4424"/>
      <path d="M123.36 115.73c0 3.417-2.776 6.186-6.2 6.186-3.424 0-6.2-2.77-6.2-6.186s2.776-6.186 6.2-6.186c3.424 0 6.2 2.77 6.2 6.186" fill="#FFB901"/>
    </g>
  </g>
</svg>