<?xml version="1.0" encoding="UTF-8"?>
<svg width="140px" height="140px" viewBox="0 0 140 140" version="1.1" xmlns="http://www.w3.org/2000/svg" xmlns:xlink="http://www.w3.org/1999/xlink">
    <!-- Generator: Sketch 54.1 (76490) - https://sketchapp.com -->
    <title>Atom/Type/Certification Fundamentals</title>
    <desc>Created with Sketch.</desc>
    <g id="Atom/Type/Certification-Fundamentals" stroke="none" stroke-width="1" fill="none" fill-rule="evenodd">
        <g id="Group-55" transform="translate(23.500000, 14.500000)">
            <path d="M17.7143326,0 C16.0905188,0 14.7619438,1.32857495 14.7619438,2.95238877 L14.7619438,87.0954687 C14.7619438,91.1727176 11.4582208,94.4764406 7.38097192,94.4764406 L81.1906912,94.4764406 C85.26794,94.4764406 88.5716631,91.1727176 88.5716631,87.0954687 L88.5716631,2.95238877 C88.5716631,1.32857495 87.2430881,0 85.6192743,0 L17.7143326,0 Z" id="Fill-1357" fill="#E1E4E1"></path>
            <path d="M67.0211318,48.9662025 L36.3241817,48.9662025 C35.0057477,48.9662025 34.7893342,48.2785908 34.7893342,47.431355 C34.7893342,46.5841191 35.0057477,45.8965074 36.3241817,45.8965074 L67.0211318,45.8965074 C68.3395658,45.8965074 68.5559793,46.5841191 68.5559793,47.431355 C68.5559793,48.2785908 68.3395658,48.9662025 67.0211318,48.9662025" id="Fill-1155" fill="#546670"></path>
            <path d="M60.8817418,55.1055925 L42.4635717,55.1055925 C41.1451377,55.1055925 40.9287242,54.4179808 40.9287242,53.570745 C40.9287242,52.7235091 41.1451377,52.0358975 42.4635717,52.0358975 L60.8817418,52.0358975 C62.2001758,52.0358975 62.4165893,52.7235091 62.4165893,53.570745 C62.4165893,54.4179808 62.2001758,55.1055925 60.8817418,55.1055925" id="Fill-1156" fill="#546670"></path>
            <path d="M75.4627931,73.5237625 L27.8825205,73.5237625 C26.5640864,73.5237625 26.3476729,72.8361508 26.3476729,71.988915 C26.3476729,71.1416792 26.5640864,70.4540675 27.8825205,70.4540675 L75.4627931,70.4540675 C76.7812271,70.4540675 76.9976406,71.1416792 76.9976406,71.988915 C76.9976406,72.8361508 76.7812271,73.5237625 75.4627931,73.5237625" id="Fill-1158" fill="#C5CCCD"></path>
            <g id="Group" transform="translate(38.500000, 99.970396)" fill="#546670">
                <polygon id="Fill-5" points="7.99289764 0 9.72327559 5.32290289 15.3238635 5.32290289 10.7931916 8.61308661 12.5235696 13.9359895 7.99289764 10.64621 3.46222572 13.9359895 5.19260367 8.61308661 0.661931759 5.32290289 6.26211549 5.32290289"></polygon>
            </g>
            <path d="M66.2537081,79.6631525 L27.8825205,79.6631525 C26.5640864,79.6631525 26.3476729,78.9755409 26.3476729,78.128305 C26.3476729,77.2810692 26.5640864,76.5934575 27.8825205,76.5934575 L66.2537081,76.5934575 C67.5721421,76.5934575 67.7885556,77.2810692 67.7885556,78.128305 C67.7885556,78.9755409 67.5721421,79.6631525 66.2537081,79.6631525" id="Fill-1157" fill="#C5CCCD"></path>
            <path d="M75.4627931,67.3843725 L27.8825205,67.3843725 C26.5640864,67.3843725 26.3476729,66.6967608 26.3476729,65.849525 C26.3476729,65.0022892 26.5640864,64.3146775 27.8825205,64.3146775 L75.4627931,64.3146775 C76.7812271,64.3146775 76.9976406,65.0022892 76.9976406,65.849525 C76.9976406,66.6967608 76.7812271,67.3843725 75.4627931,67.3843725" id="Fill-1159" fill="#C5CCCD"></path>
            <path d="M62.4766605,23.8117462 C61.8149962,23.6979152 61.1524509,23.5946568 60.4892007,23.5017948 L60.4892007,18.7592213 C60.4892007,17.9460174 59.9730849,17.2238253 59.2049024,16.9622433 L59.1903652,16.9573094 L59.1756517,16.9528161 L52.5907265,14.962537 C52.2944313,14.8635076 51.9858895,14.8132881 51.6733831,14.8132881 C51.3608767,14.8132881 51.0524231,14.8635076 50.756216,14.9624489 L44.1697929,16.9529042 L44.1550795,16.9573094 L44.1405423,16.9623314 C43.3723597,17.2238253 42.856244,17.9460174 42.856244,18.7593094 L42.856244,23.5017067 C42.1929057,23.5945687 41.5304485,23.6978271 40.8687842,23.811658 C40.4792745,23.8786174 40.1339051,24.0936803 39.9211329,24.4017815 C39.7332943,24.673848 39.663075,24.9947244 39.7232504,25.3044995 L40.6878177,30.3603724 C40.8189171,31.0356048 41.483665,31.4884615 42.1696461,31.3711945 C42.3988058,31.3318119 42.6280535,31.2941913 42.8573893,31.2576279 C42.8706931,32.5191072 43.3530649,33.744816 44.293844,34.9016272 C45.011807,35.7843455 46.0001625,36.6298838 47.2316863,37.4147181 C49.2809073,38.7207782 51.3029921,39.4176842 51.388101,39.4467587 L51.6770835,39.5453475 L51.9652731,39.4443799 C52.0502939,39.4146006 54.0698237,38.7008666 56.1168421,37.3870533 C57.3467799,36.5976376 58.333902,35.751835 59.0507196,34.8733457 C59.9918512,33.7200587 60.4745754,32.5038651 60.4879672,31.2576279 C60.7173031,31.2941913 60.9466389,31.3318119 61.1757104,31.3711945 C61.2490133,31.3837935 61.3218757,31.3897846 61.3937689,31.3897846 C61.9974605,31.3897846 62.5405362,30.9635353 62.6578032,30.3595794 L63.62193,25.3053806 C63.6823696,24.9947244 63.6120623,24.673848 63.4242237,24.4017815 C63.2114514,24.0936803 62.8660821,23.8786174 62.4766605,23.8117462 Z" id="Mask" fill="#EFB252"></path>
            <path d="M-8.8817842e-16,76.762108 L-8.8817842e-16,87.0954687 C-8.8817842e-16,91.1727176 3.30372303,94.4764406 7.38097192,94.4764406 C11.4582208,94.4764406 14.7619438,91.1727176 14.7619438,87.0954687 L14.7619438,73.8097192 L2.95238877,73.8097192 C1.32857495,73.8097192 -8.8817842e-16,75.1382942 -8.8817842e-16,76.762108 Z" id="Fill-1358" fill="#C5CCCD"></path>
            <path d="M11.8095551,87.0954687 C11.8095551,90.6663829 9.27345312,93.643867 5.90477754,94.327345 C6.38158832,94.4247738 6.87463725,94.4764406 7.38097192,94.4764406 C11.4582208,94.4764406 14.7619438,91.1727176 14.7619438,87.0954687 L14.7619438,73.8097192 L11.8095551,73.8097192 L11.8095551,87.0954687 Z" id="Fill-1359" fill="#AAB0B1"></path>
        </g>
    </g>
</svg>