<?xml version="1.0" encoding="UTF-8"?>
<svg width="140px" height="140px" viewBox="0 0 140 140" version="1.1" xmlns="http://www.w3.org/2000/svg" xmlns:xlink="http://www.w3.org/1999/xlink">
    <!-- Generator: Sketch 54.1 (76490) - https://sketchapp.com -->
    <title>Atom/Type/Exam</title>
    <desc>Created with Sketch.</desc>
    <defs>
        <filter x="-5.5%" y="-5.5%" width="111.5%" height="111.5%" filterUnits="objectBoundingBox" id="filter-1">
            <feOffset dx="0" dy="2" in="SourceAlpha" result="shadowOffsetOuter1"></feOffset>
            <feColorMatrix values="0 0 0 0 0   0 0 0 0 0   0 0 0 0 0  0 0 0 0.204955201 0" type="matrix" in="shadowOffsetOuter1" result="shadowMatrixOuter1"></feColorMatrix>
            <feMerge>
                <feMergeNode in="shadowMatrixOuter1"></feMergeNode>
                <feMergeNode in="SourceGraphic"></feMergeNode>
            </feMerge>
        </filter>
    </defs>
    <g id="Atom/Type/Exam" stroke="none" stroke-width="1" fill="none" fill-rule="evenodd">
        <g id="Group" transform="translate(6.783784, 10.000000)">
            <g id="Group-6" transform="translate(26.810811, 0.000000)">
                <path d="M7.78378378,0 C3.70656371,0 0.370656371,3.33590734 0.370656371,7.41312741 L0.370656371,111.196911 C0.370656371,115.274131 3.70656371,118.610039 7.78378378,118.610039 L78.2084942,118.610039 C82.2875676,118.610039 85.6216216,115.274131 85.6216216,111.196911 L85.6216216,29.6525097 L55.969112,0 L7.78378378,0" id="Fill-22" fill="#E1E4E1"></path>
                <path d="M63.3822394,29.6525097 L85.6216216,29.6525097 L55.969112,0 L55.969112,22.2393822 C55.969112,26.3166023 59.3050193,29.6525097 63.3822394,29.6525097" id="Fill-23" fill="#697D85"></path>
                <path d="M67.0888031,51.8918919 L18.9034749,51.8918919 C16.8574517,51.8918919 15.1969112,50.2313514 15.1969112,48.1853282 C15.1969112,46.139305 16.8574517,44.4787645 18.9034749,44.4787645 L67.0888031,44.4787645 C69.1366795,44.4787645 70.7953668,46.139305 70.7953668,48.1853282 C70.7953668,50.2313514 69.1366795,51.8918919 67.0888031,51.8918919" id="Fill-24" fill="#C5CCCD"></path>
                <path d="M36.9035257,19.7027498 L36.9035257,14.7503506 C36.9035257,13.9011681 36.3645754,13.1470241 35.5624061,12.8738689 L35.5472257,12.8687167 L35.5318613,12.8640246 L28.6555991,10.7856895 C28.3461949,10.6822788 28.0240023,10.6298374 27.6976697,10.6298374 C27.371337,10.6298374 27.0492365,10.6822788 26.7399243,10.7855975 L19.862098,12.8641166 L19.8467336,12.8687167 L19.8315532,12.8739609 C19.029384,13.1470241 18.4904337,13.9011681 18.4904337,14.7504426 L18.4904337,19.7026578 L18.4916297,27.8017245 C18.8367002,29.5332104 19.3367028,30.8016173 19.9916375,31.6069453 C20.7413653,32.5287177 21.7734487,33.4116651 23.0594588,34.2312229 C25.1993435,35.595067 27.3108914,36.3228063 27.3997658,36.3531671 L27.7015338,36.4561178 L28.0024738,36.350683 C28.0912561,36.3195862 30.200136,35.5742745 32.3377207,34.2023341 C33.6220747,33.3779923 34.65287,32.4947688 35.4014018,31.5774125 C36.0565819,30.7745379 36.5568605,29.5159752 36.9022376,27.8017245" id="Black" fill="#A7B4B6"></path>
                <path d="M67.0888031,68.5714286 L18.9034749,68.5714286 C16.8574517,68.5714286 15.1969112,66.910888 15.1969112,64.8648649 C15.1969112,62.8188417 16.8574517,61.1583012 18.9034749,61.1583012 L67.0888031,61.1583012 C69.1366795,61.1583012 70.7953668,62.8188417 70.7953668,64.8648649 C70.7953668,66.910888 69.1366795,68.5714286 67.0888031,68.5714286" id="Fill-27" fill="#C5CCCD"></path>
                <path d="M67.0888031,85.2509653 L18.9034749,85.2509653 C16.8574517,85.2509653 15.1969112,83.5904247 15.1969112,81.5444015 C15.1969112,79.4983784 16.8574517,77.8378378 18.9034749,77.8378378 L67.0888031,77.8378378 C69.1366795,77.8378378 70.7953668,79.4983784 70.7953668,81.5444015 C70.7953668,83.5904247 69.1366795,85.2509653 67.0888031,85.2509653" id="Fill-28" fill="#C5CCCD"></path>
                <path d="M18.9034749,101.930502 C16.8574517,101.930502 15.1969112,100.269961 15.1969112,98.2239382 C15.1969112,96.1779151 16.8574517,94.5173745 18.9034749,94.5173745 L67.0888031,94.5173745 C69.1366795,94.5173745 70.7953668,96.1779151 70.7953668,98.2239382 C70.7953668,100.269961 69.1366795,101.930502 67.0888031,101.930502 L18.9034749,101.930502 Z" id="Fill-29" fill="#C5CCCD"></path>
                <polyline id="Fill-30" fill="#C5CCCD" points="85.6216216 51.8918919 63.3822394 29.6525097 85.6216216 29.6525097 85.6216216 51.8918919"></polyline>
            </g>
            <g id="Group-9" filter="url(#filter-1)" transform="translate(0.000000, 23.351351)">
                <path d="M24.1681922,7.70133383 L17.3964936,0.929635256 C16.5150442,0.0380282779 15.0862158,0.0380282779 14.2047664,0.929635256 L0.661369227,14.4730324 C-0.220080204,15.3533532 -0.220080204,16.7754099 0.661369227,17.6557307 L7.4330678,24.4274293 C7.87435682,24.8675897 8.45107982,25.093313 9.02893143,25.093313 C9.60678304,25.093313 10.183506,24.8675897 10.6247951,24.4274293 L24.1681922,10.8840322 C25.0496416,10.0037113 25.0496416,8.58165464 24.1681922,7.70133383" id="Fill-267" fill="#546670"></path>
                <path d="M24.1681922,7.70133383 L21.4437121,4.97008207 L14.6720136,11.7417806 C13.7905641,12.6221015 12.3617357,12.6221015 11.4802863,11.7417806 L7.4330678,7.70133383 L0.661369227,14.4730324 C-0.220080204,15.3533532 -0.220080204,16.7754099 0.661369227,17.6557307 L7.4330678,24.4274293 C7.54367221,24.5402909 7.66217693,24.6418664 7.78745336,24.7208696 C7.88451437,24.7885866 7.98834708,24.8337312 8.09217979,24.8788759 C8.12265244,24.890162 8.14973923,24.9127344 8.18021187,24.9240205 C8.45107982,25.0368822 8.74000562,25.093313 9.02893143,25.093313 C9.60678304,25.093313 10.183506,24.8675897 10.6247951,24.4274293 L24.1681922,10.8840322 C25.0496416,10.0037113 25.0496416,8.58165464 24.1681922,7.70133383" id="Fill-268" fill="#30404D"></path>
                <path d="M71.5700822,68.646621 L68.1842329,65.2607717 C67.3027835,64.3691647 65.8739551,64.3691647 64.9925056,65.2607717 C64.1110562,66.1410925 64.1110562,67.5631492 64.9925056,68.44347 L68.3783549,71.8293193 C68.819644,72.2694797 69.396367,72.495203 69.9742186,72.495203 C70.5520702,72.495203 71.1287932,72.2694797 71.5700822,71.8293193 C72.4515316,70.9489985 72.4515316,69.5269418 71.5700822,68.646621" id="Fill-269" fill="#30404D"></path>
                <path d="M64.9925056,65.2607717 C64.1110562,66.1410925 64.1110562,67.5631492 64.9925056,68.44347 L68.3783549,71.8293193 C68.819644,72.2694797 69.396367,72.495203 69.9742186,72.495203 C70.5520702,72.495203 71.1287932,72.2694797 71.5700822,71.8293193 L64.9925056,65.2607717" id="Fill-270" fill="#182A37"></path>
                <path d="M68.8456021,65.7235044 L68.8456021,57.8231894 C68.8456021,57.2250227 68.6074641,56.6494283 68.1842329,56.2318402 L64.7983836,52.845991 C63.9169342,51.954384 62.4881058,51.954384 61.6066564,52.845991 L52.5777249,61.8749224 C51.6962755,62.7552432 51.6962755,64.1772999 52.5777249,65.0576207 L55.9635742,68.44347 C56.3868054,68.8723442 56.9612711,69.1093537 57.5594378,69.1093537 L65.4597528,69.1093537 L68.8456021,65.7235044" id="Fill-271" fill="#7CB65A"></path>
                <path d="M67.1526775,67.4164291 L57.0921906,57.3604567 L52.5777249,61.8749224 C51.6962755,62.7552432 51.6962755,64.1772999 52.5777249,65.0576207 L55.9635742,68.44347 C56.3868054,68.8723442 56.9612711,69.1093537 57.5594378,69.1093537 L65.4597528,69.1093537 L67.1526775,67.4164291" id="Fill-272" fill="#69994E"></path>
                <path d="M64.7983836,52.845991 L42.2260551,30.2736624 C41.3446056,29.3820554 39.9157772,29.3820554 39.0343278,30.2736624 L30.0053964,39.3025938 C29.1239469,40.1829146 29.1239469,41.6049713 30.0053964,42.4852922 L52.5777249,65.0576207 L64.7983836,52.845991" id="Fill-273" fill="#546670"></path>
                <path d="M58.6880543,58.9518058 L41.3705638,41.6388298 C40.4891144,40.758509 40.4891144,39.3251662 41.3705638,38.4448453 L45.8850295,33.9303796 L42.2260551,30.2736624 C41.3446056,29.3820554 39.9157772,29.3820554 39.0343278,30.2736624 L30.0053964,39.3025938 C29.7853162,39.5170309 29.6194095,39.7766127 29.5088051,40.0474807 C29.1792491,40.8600845 29.3440271,41.8306946 30.0053964,42.4852922 L33.6643708,46.1532955 L52.5777249,65.0576207 L58.6880543,58.9518058" id="Fill-274" fill="#30404D"></path>
                <path d="M26.4254251,46.0742924 L10.6247951,30.2736624 C10.6010941,30.2398039 10.5717501,30.2285177 10.5469205,30.2059454 C10.5187051,30.1833731 10.49839,30.1495146 10.469046,30.1269423 C9.54019467,29.3594831 9.02893143,28.3663006 9.03006004,27.3505458 C9.03006004,26.3235049 9.54019467,25.3416086 10.4679174,24.5741494 C11.42837,23.7841179 11.5626753,22.3620612 10.7670007,21.3914511 C9.97132615,20.4321271 8.54926945,20.2966932 7.58994548,21.0980108 C5.60809503,22.7345047 4.51559433,24.957879 4.51559433,27.3505458 C4.51446571,29.6754957 5.55279283,31.8311531 7.43193918,33.4563607 C7.4330678,33.4563607 7.4330678,33.4563607 7.4330678,33.4563607 L23.2336978,49.2569907 C23.6749868,49.6971511 24.2517098,49.9228744 24.8295614,49.9228744 C25.407413,49.9228744 25.984136,49.6971511 26.4254251,49.2569907 C27.3068745,48.3766699 27.3068745,46.9546132 26.4254251,46.0742924" id="Fill-275" fill="#30404D"></path>
                <path d="M44.4832879,28.0164295 L22.5723286,6.0986985 L5.83720417,22.8360801 L27.7481635,44.742525 C28.1894525,45.1826854 28.7661755,45.4084087 29.3440271,45.4084087 C29.9218788,45.4084087 30.4986017,45.1826854 30.9398908,44.742525 L44.4832879,31.1991279 C45.3647373,30.3188071 45.3647373,28.8967504 44.4832879,28.0164295" id="Fill-276" fill="#7CB65A"></path>
                <path d="M29.3440271,45.4084087 C29.9218788,45.4084087 30.4986017,45.1826854 30.9398908,44.742525 L37.7115893,37.9708264 L14.2047664,14.4730324 L5.83720417,22.8360801 L27.7481635,44.742525 C28.1894525,45.1826854 28.7661755,45.4084087 29.3440271,45.4084087" id="Fill-277" fill="#69994E"></path>
            </g>
        </g>
    </g>
</svg>