<?xml version="1.0" encoding="UTF-8"?>
<svg width="455px" height="131px" viewBox="0 0 455 131" version="1.1" xmlns="http://www.w3.org/2000/svg" xmlns:xlink="http://www.w3.org/1999/xlink">
    <!-- Generator: Sketch 51.3 (57544) - http://www.bohemiancoding.com/sketch -->
    <title>hands_on_learning</title>
    <desc>Created with Sketch.</desc>
    <defs></defs>
    <g id="Learn" stroke="none" stroke-width="1" fill="none" fill-rule="evenodd">
        <g id="Hands-on_learning-tab" transform="translate(-667.000000, -147.000000)">
            <g id="hands_on_learning" transform="translate(668.000000, 147.000000)">
                <g id="Group-15" transform="translate(278.000000, 18.000000)">
                    <rect id="Rectangle-14" stroke="#006ABB" stroke-width="2" x="1" y="1" width="54" height="76" rx="3"></rect>
                    <path d="M54.33,55.1586459 L46.67,59.0645715 C46.2585162,59.2786358 46.0042115,59.6677161 46,60.089656 L46,67.910344 C46.0022101,68.3327644 46.2570452,68.7226561 46.67,68.9354285 L54.33,72.8413541 C54.7445974,73.052882 55.2554026,73.052882 55.67,72.8413541 L63.33,68.9354285 C63.7429548,68.7226561 63.9977899,68.3327644 64,67.910344 L64,60.089656 C63.9957885,59.6677161 63.7414838,59.2786358 63.33,59.0645715 L55.67,55.1586459 C55.2554026,54.947118 54.7445974,54.947118 54.33,55.1586459 Z" id="Shape" fill="#0266AB" fill-rule="nonzero"></path>
                </g>
                <path d="M400,73.7807764 L255.123106,110 L397,110 C398.656854,110 400,108.656854 400,107 L400,73.7807764 Z" id="Rectangle-15" stroke="#006ABB" stroke-width="2"></path>
                <polygon id="Shape" fill="#0483DA" fill-rule="nonzero" transform="translate(437.499132, 53.759498) rotate(160.000000) translate(-437.499132, -53.759498) " points="434.885335 52.2347831 434.885335 55.284213 437.493583 56.808928 440.112929 55.284213 440.112929 52.2347831 437.493583 50.7100681"></polygon>
                <path d="M404.456881,50.0003161 C397.971901,50.0054062 392.508338,54.8252471 391.720084,61.2364525 L391.672201,61.6179852 L391.28914,61.6179852 C387.584491,62.0041201 384.827713,65.2050924 385.008394,68.9107367 C385.189075,72.6163811 388.244292,75.5362284 391.969074,75.5630034 L415.287946,75.5630034 C418.715501,75.5696634 421.643834,73.1034922 422.206936,69.7359972 C422.770038,66.3685023 420.802288,63.0901454 417.557586,61.9899795 L417.260714,61.885058 L417.260714,61.5798319 C416.667843,54.9897893 411.099679,49.9540585 404.456881,50.0003161 Z" id="Path" stroke="#006ABB" stroke-width="2" fill="#FFFFFF"></path>
                <g id="Group" transform="translate(402.000000, 66.000000)">
                    <path d="M30.4615385,26.3454545 L14.0461538,26.3454545 C13.5384615,26.3454545 13.2,26.0181818 13.2,25.5272727 L13.2,1.63636364 C13.2,1.14545455 13.5384615,0.818181818 14.0461538,0.818181818 L30.4615385,0.818181818 C30.6307692,0.818181818 30.9692308,0.981818182 31.1384615,0.981818182 L43.4923077,12.9272727 C43.6615385,13.0909091 43.6615385,13.2545455 43.6615385,13.5818182 C43.6615385,13.9090909 43.4923077,14.0727273 43.4923077,14.2363636 L31.1384615,26.1818182 C30.9692308,26.1818182 30.6307692,26.3454545 30.4615385,26.3454545 Z M14.8923077,24.7090909 L30.1230769,24.7090909 L41.6307692,13.5818182 L30.1230769,2.45454545 L14.8923077,2.45454545 L14.8923077,24.7090909 Z" id="Shape" fill="#0266AB" fill-rule="nonzero"></path>
                    <polygon id="Path" fill="#FFFFFF" points="14.8923077 24.7090909 30.1230769 24.7090909 41.6307692 13.5818182 30.1230769 2.45454545 14.8923077 2.45454545"></polygon>
                    <g fill="#0483DA" fill-rule="nonzero">
                        <rect id="Rectangle-path" transform="translate(14.138740, 13.506971) rotate(45.000000) translate(-14.138740, -13.506971) " x="5.42343897" y="5.079779" width="17.4306021" height="16.8543838"></rect>
                        <path d="M14.0461538,26.6727273 L0.507692308,13.5818182 L14.0461538,0.490909091 L27.5846154,13.5818182 L14.0461538,26.6727273 Z M2.87692308,13.5818182 L14.0461538,24.3818182 L25.2153846,13.5818182 L14.0461538,2.78181818 L2.87692308,13.5818182 Z" id="Shape"></path>
                    </g>
                    <polygon id="Shape" fill="#F9F9F9" fill-rule="nonzero" transform="translate(14.130769, 15.136364) rotate(-4.000000) translate(-14.130769, -15.136364) " points="12.0153846 19.6363636 7.95384615 15.7090909 8.96923077 14.7272727 12.0153846 17.6727273 19.2923077 10.6363636 20.3076923 11.6181818"></polygon>
                </g>
                <rect id="Rectangle-path" fill="#006ABB" fill-rule="nonzero" transform="translate(448.949747, 66.949747) rotate(45.000000) translate(-448.949747, -66.949747) " x="445.449747" y="63.4497475" width="7" height="7"></rect>
                <g id="calendar" transform="translate(296.000000, 0.000000)" stroke="#006ABB">
                    <g>
                        <rect id="Rectangle-11" stroke-width="2" fill="#FFFFFF" x="1" y="3.63157895" width="59" height="45.3684211" rx="6.72"></rect>
                        <g id="Group-18">
                            <path d="M0.96,13.9522807 L60.04,13.9522807 L60.04,9.35157895 C60.04,6.17041879 57.4611602,3.59157895 54.28,3.59157895 L6.72,3.59157895 C3.53883984,3.59157895 0.96,6.17041879 0.96,9.35157895 L0.96,13.9522807 Z M10.0214286,13.2407018 C7.8053447,13.2407018 6.01142857,11.4349191 6.01142857,9.21052632 C6.01142857,6.98613358 7.8053447,5.18035088 10.0214286,5.18035088 C12.2375124,5.18035088 14.0314286,6.98613358 14.0314286,9.21052632 C14.0314286,11.4349191 12.2375124,13.2407018 10.0214286,13.2407018 Z M23.0928571,13.2407018 C20.8767733,13.2407018 19.0828571,11.4349191 19.0828571,9.21052632 C19.0828571,6.98613358 20.8767733,5.18035088 23.0928571,5.18035088 C25.308941,5.18035088 27.1028571,6.98613358 27.1028571,9.21052632 C27.1028571,11.4349191 25.308941,13.2407018 23.0928571,13.2407018 Z M37.0357143,13.2407018 C34.8196304,13.2407018 33.0257143,11.4349191 33.0257143,9.21052632 C33.0257143,6.98613358 34.8196304,5.18035088 37.0357143,5.18035088 C39.2517982,5.18035088 41.0457143,6.98613358 41.0457143,9.21052632 C41.0457143,11.4349191 39.2517982,13.2407018 37.0357143,13.2407018 Z M50.1071429,13.2407018 C47.891059,13.2407018 46.0971429,11.4349191 46.0971429,9.21052632 C46.0971429,6.98613358 47.891059,5.18035088 50.1071429,5.18035088 C52.3232267,5.18035088 54.1171429,6.98613358 54.1171429,9.21052632 C54.1171429,11.4349191 52.3232267,13.2407018 50.1071429,13.2407018 Z" id="Combined-Shape" stroke-width="1.92" fill="#006ABB"></path>
                            <rect id="Rectangle-12" fill="#FFFFFF" x="8.34285714" y="0.5" width="3.35714286" height="7.77192982" rx="1.67857143"></rect>
                            <rect id="Rectangle-12" fill="#FFFFFF" x="21.4142857" y="0.5" width="3.35714286" height="7.77192982" rx="1.67857143"></rect>
                            <rect id="Rectangle-12" fill="#FFFFFF" x="35.3571429" y="0.5" width="3.35714286" height="7.77192982" rx="1.67857143"></rect>
                            <rect id="Rectangle-12" fill="#FFFFFF" x="48.4285714" y="0.5" width="3.35714286" height="7.77192982" rx="1.67857143"></rect>
                        </g>
                        <g id="Group-19" transform="translate(8.714286, 18.421053)" stroke-width="1.5">
                            <rect id="Rectangle-13" x="0.75" y="0.75" width="5.47142857" height="5.51754386" rx="0.96"></rect>
                            <rect id="Rectangle-13" x="12.95" y="0.75" width="5.47142857" height="5.51754386" rx="0.96"></rect>
                            <rect id="Rectangle-13" x="25.15" y="0.75" width="5.47142857" height="5.51754386" rx="0.96"></rect>
                            <rect id="Rectangle-13" fill="#0483DA" x="37.35" y="0.75" width="5.47142857" height="5.51754386" rx="0.96"></rect>
                            <rect id="Rectangle-13" x="25.15" y="10.3991228" width="5.47142857" height="5.51754386" rx="0.96"></rect>
                            <rect id="Rectangle-13" x="0.75" y="10.3991228" width="5.47142857" height="5.51754386" rx="0.96"></rect>
                            <rect id="Rectangle-13" fill="#0483DA" x="12.95" y="10.3991228" width="5.47142857" height="5.51754386" rx="0.96"></rect>
                            <rect id="Rectangle-13" x="37.35" y="10.3991228" width="5.47142857" height="5.51754386" rx="0.96"></rect>
                        </g>
                        <g id="Group-19" transform="translate(8.714286, 37.719298)" stroke-width="1.5">
                            <rect id="Rectangle-13" x="0.75" y="0.75" width="5.47142857" height="5.51754386" rx="0.96"></rect>
                            <rect id="Rectangle-13" x="12.95" y="0.75" width="5.47142857" height="5.51754386" rx="0.96"></rect>
                            <rect id="Rectangle-13" x="25.15" y="0.75" width="5.47142857" height="5.51754386" rx="0.96"></rect>
                            <rect id="Rectangle-13" x="37.35" y="0.75" width="5.47142857" height="5.51754386" rx="0.96"></rect>
                        </g>
                    </g>
                </g>
                <g id="Group-14" transform="translate(0.000000, 49.000000)" fill-rule="nonzero">
                    <polygon id="Shape" fill="#0483DA" points="104 40 101 41.75 101 45.25 104 47 107 45.25 107 41.75"></polygon>
                    <circle id="Oval" fill="#0266AB" cx="35.5" cy="34.5" r="9.5"></circle>
                    <path d="M9.5,63.1875 C14.090867,63.1875 17.8125,66.909133 17.8125,71.5 C17.8125,76.090867 14.090867,79.8125 9.5,79.8125 C4.90913302,79.8125 1.1875,76.090867 1.1875,71.5 C1.1875,66.909133 4.90913302,63.1875 9.5,63.1875 Z M9.5,62 C4.25329488,62 0,66.2532949 0,71.5 C0,76.7467051 4.25329488,81 9.5,81 C14.7467051,81 19,76.7467051 19,71.5 C19,66.2532949 14.7467051,62 9.5,62 Z" id="Shape" stroke="#0483DA" fill="#0483DA"></path>
                    <path d="M72,40.25 C74.0710678,40.25 75.75,41.9289322 75.75,44 C75.75,46.0710678 74.0710678,47.75 72,47.75 C69.9289322,47.75 68.25,46.0710678 68.25,44 C68.25,41.9289322 69.9289322,40.25 72,40.25 Z M72,39 C69.2385763,39 67,41.2385763 67,44 C67,46.7614237 69.2385763,49 72,49 C74.7614237,49 77,46.7614237 77,44 C77,41.2385763 74.7614237,39 72,39 Z" id="Shape" fill="#0483DA"></path>
                    <path d="M104.5,1.1875 C109.090867,1.1875 112.8125,4.90913302 112.8125,9.5 C112.8125,14.090867 109.090867,17.8125 104.5,17.8125 C99.909133,17.8125 96.1875,14.090867 96.1875,9.5 C96.1875,4.90913302 99.909133,1.1875 104.5,1.1875 Z M104.5,0 C99.2532949,0 95,4.25329488 95,9.5 C95,14.7467051 99.2532949,19 104.5,19 C109.746705,19 114,14.7467051 114,9.5 C114,4.25329488 109.746705,0 104.5,0 Z" id="Shape" fill="#0483DA"></path>
                    <path d="M96.0032291,18.9997653 C95.7502177,19.0053886 95.5053265,18.9097775 95.3223141,18.7339204 C94.9175363,18.3532638 94.8904138,17.7165514 95.2613366,17.302448 C95.4521621,17.1088795 95.7119219,17 95.9829033,17 C96.2538846,17 96.5136444,17.1088795 96.70447,17.302448 C97.09851,17.7012536 97.09851,18.3453396 96.70447,18.7441452 C96.5088929,18.9114393 96.2599276,19.0021935 96.0032291,18.9997653 Z" id="Shape" fill="#0266AB"></path>
                </g>
                <path d="M86.4724763,124.697684 C86.2531583,124.695343 86.0358358,124.658187 85.8296776,124.587784 L85.6543689,124.587784 C84.6434481,124.243516 84.1203433,123.194137 84.485644,122.243252 C84.6612547,121.782327 85.0257989,121.406701 85.4979074,121.200216 C85.9700158,120.993731 86.5103859,120.973577 86.9984025,121.144253 C87.5075434,121.293935 87.9291246,121.633416 88.1647381,122.083454 C88.4003516,122.533491 88.4293782,123.054701 88.2450424,123.525418 C87.9612055,124.217694 87.261285,124.680578 86.4724763,124.697684 Z M79.67332,120.613608 C79.4540019,120.611267 79.2366794,120.574111 79.0305213,120.503708 L78.8552126,120.503708 C78.2010583,120.277943 77.7246804,119.741161 77.605526,119.095563 C77.4863716,118.449964 77.742543,117.793631 78.2775429,117.373797 C78.8125428,116.953963 79.545092,116.834412 80.1992462,117.060177 C80.708387,117.209859 81.1299683,117.54934 81.3655818,117.999378 C81.6011953,118.449415 81.6302219,118.970625 81.4458861,119.441342 C81.1620492,120.133618 80.4621287,120.596503 79.67332,120.613608 Z M72.879296,116.516267 C72.6599779,116.513926 72.4426554,116.47677 72.2364973,116.406367 L72.0611886,116.406367 C71.3878609,116.197407 70.8884679,115.6609 70.7573672,115.005648 C70.6262664,114.350397 70.8841684,113.679912 71.4307008,113.25514 C71.9772331,112.830367 72.7260585,112.718408 73.3857434,112.962836 C73.8984506,113.108604 74.3246999,113.44647 74.5642406,113.89697 C74.8037814,114.34747 74.8354731,114.870845 74.6518621,115.344001 C74.382189,116.006966 73.7294615,116.463737 72.9766897,116.516267 L72.879296,116.516267 Z M66.0774214,112.440045 C65.8581034,112.437704 65.6407809,112.400548 65.4346227,112.330145 L65.2398353,112.330145 C64.2286006,111.976085 63.7140656,110.918202 64.0905891,109.967297 C64.4671127,109.016392 65.592113,108.532554 66.6033476,108.886615 C67.1124885,109.036296 67.5340697,109.375778 67.7696832,109.825815 C68.0052967,110.275853 68.0343233,110.797062 67.8499875,111.26778 C67.5661506,111.960056 66.8662301,112.42294 66.0774214,112.440045 Z M42.4760116,63.9314561 C42.2566935,63.9291148 42.039371,63.891959 41.8332129,63.8215562 L41.6579042,63.8215562 C40.6469834,63.4772886 40.1238786,62.4279093 40.4891793,61.4770245 C40.66479,61.0160994 41.0293342,60.6404729 41.5014426,60.433988 C41.9735511,60.227503 42.5139211,60.2073493 43.0019378,60.3780253 C43.5110786,60.5277069 43.9326599,60.8671884 44.1682734,61.3172258 C44.4038869,61.7672633 44.4329135,62.2884728 44.2485777,62.7591903 C43.9647408,63.4514665 43.2648203,63.9143507 42.4760116,63.9314561 Z M34.9766936,61.3488079 C34.7573755,61.3464666 34.540053,61.3093108 34.3338949,61.238908 L34.1585861,61.238908 C33.5044318,61.0131432 33.028054,60.4763612 32.9088996,59.8307625 C32.7897451,59.1851639 33.0459165,58.5288305 33.5809165,58.1089968 C34.1159164,57.6891631 34.8484656,57.569612 35.5026198,57.7953771 C36.0117606,57.9450587 36.4333418,58.2845402 36.6689553,58.7345776 C36.9045689,59.1846151 36.9335955,59.7058246 36.7492596,60.1765421 C36.4654227,60.8688183 35.7655023,61.3317025 34.9766936,61.3488079 Z M27.4773755,58.7661597 C27.2580575,58.7638184 27.040735,58.7266626 26.8345769,58.6562598 L26.6592681,58.6562598 C25.9859404,58.4472996 25.4865474,57.9107929 25.3554467,57.2555413 C25.224346,56.6002897 25.4822479,55.9298053 26.0287803,55.5050324 C26.5753127,55.0802594 27.3241381,54.9683006 27.983823,55.2127289 C28.4965302,55.3584973 28.9227795,55.6963631 29.1623202,56.1468627 C29.4018609,56.5973624 29.4335526,57.1207374 29.2499416,57.5938939 C28.9802685,58.2568588 28.3275411,58.7136298 27.5747693,58.7661597 L27.4773755,58.7661597 Z" id="Shape" fill="#0266AB" fill-rule="nonzero" transform="translate(56.843425, 89.891433) rotate(-72.000000) translate(-56.843425, -89.891433) "></path>
                <path d="M63.2299429,93.0118053 C63.0106248,93.009464 62.7933023,92.9723081 62.5871442,92.9019054 L62.4118354,92.9019054 C61.4009146,92.5576378 60.8778099,91.5082585 61.2431106,90.5573737 C61.4187213,90.0964486 61.7832654,89.7208221 62.2553739,89.5143371 C62.7274824,89.3078522 63.2678524,89.2876984 63.7558691,89.4583744 C64.2650099,89.6080561 64.6865911,89.9475375 64.9222046,90.397575 C65.1578182,90.8476125 65.1868448,91.3688219 65.0025089,91.8395394 C64.718672,92.5318156 64.0187516,92.9946998 63.2299429,93.0118053 Z M55.7306248,90.4291571 C55.5113068,90.4268158 55.2939843,90.3896599 55.0878262,90.3192572 L54.9125174,90.3192572 C54.2583631,90.0934924 53.7819853,89.5567104 53.6628308,88.9111117 C53.5436764,88.2655131 53.7998478,87.6091796 54.3348477,87.189346 C54.8698477,86.7695123 55.6023969,86.6499611 56.256551,86.8757262 C56.7656919,87.0254079 57.1872731,87.3648894 57.4228866,87.8149268 C57.6585001,88.2649643 57.6875268,88.7861737 57.5031909,89.2568912 C57.219354,89.9491674 56.5194335,90.4120517 55.7306248,90.4291571 Z M48.2313068,87.8465089 C48.0119888,87.8441676 47.7946663,87.8070118 47.5885081,87.736609 L47.4131994,87.736609 C46.7398717,87.5276488 46.2404787,86.9911421 46.109378,86.3358904 C45.9782773,85.6806388 46.2361792,85.0101545 46.7827116,84.5853815 C47.329244,84.1606086 48.0780694,84.0486498 48.7377543,84.293078 C49.2504614,84.4388465 49.6767107,84.7767123 49.9162515,85.2272119 C50.1557922,85.6777115 50.1874839,86.2010866 50.0038729,86.674243 C49.7341998,87.337208 49.0814724,87.793979 48.3287006,87.8465089 L48.2313068,87.8465089 Z" id="Shape" fill="#0266AB" fill-rule="nonzero" transform="translate(55.599124, 88.588669) rotate(-179.000000) translate(-55.599124, -88.588669) "></path>
                <rect id="Rectangle-16" stroke="#006ABB" stroke-width="2" fill="#FFFFFF" x="350" y="92" width="33" height="33" rx="2"></rect>
                <circle id="Oval-6" stroke="#006ABB" fill="#FFFFFF" cx="377" cy="119" r="2"></circle>
                <g id="Group-12" transform="translate(356.000000, 123.000000)" fill="#0483DA">
                    <rect id="Rectangle-17" x="0" y="0" width="3" height="5" rx="1"></rect>
                    <rect id="Rectangle-17" x="6" y="0" width="3" height="5" rx="1"></rect>
                    <rect id="Rectangle-17" x="12" y="0" width="3" height="5" rx="1"></rect>
                    <rect id="Rectangle-17" x="18" y="0" width="3" height="5" rx="1"></rect>
                </g>
                <g id="Group-12" transform="translate(383.500000, 107.500000) rotate(-90.000000) translate(-383.500000, -107.500000) translate(373.000000, 105.000000)" fill="#0483DA">
                    <rect id="Rectangle-17" x="0" y="0" width="3" height="5" rx="1"></rect>
                    <rect id="Rectangle-17" x="6" y="0" width="3" height="5" rx="1"></rect>
                    <rect id="Rectangle-17" x="12" y="0" width="3" height="5" rx="1"></rect>
                    <rect id="Rectangle-17" x="18" y="0" width="3" height="5" rx="1"></rect>
                </g>
                <g id="Group-24" transform="translate(347.000000, 89.000000)">
                    <circle id="Oval-6" stroke="#006ABB" fill="#FFFFFF" cx="9" cy="9" r="2"></circle>
                    <rect id="Rectangle-17" fill="#0483DA" x="9" y="0" width="3" height="5" rx="1"></rect>
                    <rect id="Rectangle-17" fill="#0483DA" x="15" y="0" width="3" height="5" rx="1"></rect>
                    <rect id="Rectangle-17" fill="#0483DA" x="21" y="0" width="3" height="5" rx="1"></rect>
                    <rect id="Rectangle-17" fill="#0483DA" x="27" y="0" width="3" height="5" rx="1"></rect>
                    <g id="Group-12" transform="translate(2.500000, 18.500000) rotate(-90.000000) translate(-2.500000, -18.500000) translate(-8.000000, 16.000000)" fill="#0483DA">
                        <rect id="Rectangle-17" x="0" y="0" width="3" height="5" rx="1"></rect>
                        <rect id="Rectangle-17" x="6" y="0" width="3" height="5" rx="1"></rect>
                        <rect id="Rectangle-17" x="12" y="0" width="3" height="5" rx="1"></rect>
                        <rect id="Rectangle-17" x="18" y="0" width="3" height="5" rx="1"></rect>
                    </g>
                </g>
                <path d="M85.95,3.37594937 L85.95,126.678481 L283.855147,126.678481 L283.855147,3.37594937 C283.855147,1.44683544 282.405882,0 280.473529,0 L89.3316176,0 C87.5602941,0 85.95,1.44683544 85.95,3.37594937 Z" id="Shape" fill="#ADADAD" fill-rule="nonzero"></path>
                <rect id="Rectangle-path" fill="#F0F0F0" fill-rule="nonzero" x="96.0948529" y="10.1278481" width="177.615441" height="106.262025"></rect>
                <rect id="Rectangle-path" fill="#30404D" fill-rule="nonzero" x="202.696324" y="20.2556962" width="71.0139706" height="96.1341772"></rect>
                <rect id="Rectangle-path" fill="#FFFFFF" fill-rule="nonzero" x="96.0948529" y="10.1278481" width="177.615441" height="10.1278481"></rect>
                <path d="M191.263235,50.9607595 L107.527941,50.9607595 C106.561765,50.9607595 105.756618,50.156962 105.756618,49.1924051 C105.756618,48.2278481 106.561765,47.4240506 107.527941,47.4240506 L191.263235,47.4240506 C192.229412,47.4240506 193.034559,48.2278481 193.034559,49.1924051 C193.034559,50.156962 192.229412,50.9607595 191.263235,50.9607595 Z" id="Shape" fill="#CFCFCF" fill-rule="nonzero"></path>
                <path d="M227.333824,38.421519 L213.968382,38.421519 C213.002206,38.421519 212.197059,37.6177215 212.197059,36.6531646 C212.197059,35.6886076 213.002206,34.8848101 213.968382,34.8848101 L227.333824,34.8848101 C228.3,34.8848101 229.105147,35.6886076 229.105147,36.6531646 C229.105147,37.6177215 228.3,38.421519 227.333824,38.421519 Z" id="Shape" fill="#E7E7E7" fill-rule="nonzero"></path>
                <path d="M214.129412,70.0911392 C213.646324,70.0911392 213.163235,69.9303797 212.841176,69.6088608 C212.519118,69.2873418 212.358088,68.8050633 212.358088,68.3227848 C212.358088,68.1620253 212.358088,67.8405063 212.519118,67.6797468 C212.680147,67.5189873 212.680147,67.3582278 212.841176,67.1974684 C213.324265,66.7151899 214.129412,66.5544304 214.6125,66.8759494 C214.773529,67.0367089 214.934559,67.0367089 215.095588,67.1974684 C215.256618,67.3582278 215.417647,67.5189873 215.417647,67.6797468 C215.578676,67.8405063 215.578676,68.1620253 215.578676,68.3227848 C215.578676,68.8050633 215.417647,69.1265823 215.095588,69.6088608 C214.934559,69.9303797 214.6125,70.0911392 214.129412,70.0911392 Z" id="Shape" fill="#E7E7E7" fill-rule="nonzero"></path>
                <path d="M220.409559,63.0177215 L219.121324,63.0177215 C218.155147,63.0177215 217.35,62.2139241 217.35,61.4101266 C217.35,60.6063291 218.155147,59.8025316 219.121324,59.8025316 L220.409559,59.8025316 C221.375735,59.8025316 222.180882,60.6063291 222.180882,61.4101266 C222.180882,62.2139241 221.375735,63.0177215 220.409559,63.0177215 Z" id="Shape" fill="#E7E7E7" fill-rule="nonzero"></path>
                <path d="M237.478676,57.3911392 L224.113235,57.3911392 C223.147059,57.3911392 222.341912,56.5873418 222.341912,55.7835443 C222.341912,54.9797468 223.147059,54.0151899 224.113235,54.0151899 L237.478676,54.0151899 C238.444853,54.0151899 239.25,54.8189873 239.25,55.7835443 C239.25,56.7481013 238.444853,57.3911392 237.478676,57.3911392 Z" id="Shape" fill="#0483DA" fill-rule="nonzero"></path>
                <path d="M184.983088,58.9987342 L107.688971,58.9987342 C106.722794,58.9987342 105.917647,58.1949367 105.917647,57.3911392 C105.917647,56.5873418 106.722794,55.7835443 107.688971,55.7835443 L184.983088,55.7835443 C185.949265,55.7835443 186.754412,56.5873418 186.754412,57.3911392 C186.754412,58.1949367 185.788235,58.9987342 184.983088,58.9987342 Z" id="Shape" fill="#CFCFCF" fill-rule="nonzero"></path>
                <path d="M178.541912,68.8050633 L107.527941,68.8050633 C106.561765,68.8050633 105.756618,68.0012658 105.756618,67.1974684 C105.756618,66.3936709 106.561765,65.5898734 107.527941,65.5898734 L178.541912,65.5898734 C179.508088,65.5898734 180.313235,66.3936709 180.313235,67.1974684 C180.313235,68.0012658 179.508088,68.8050633 178.541912,68.8050633 Z" id="Shape" fill="#CFCFCF" fill-rule="nonzero"></path>
                <path d="M156.319853,29.5797468 L142.310294,29.5797468 C141.344118,29.5797468 140.538971,28.7759494 140.538971,27.8113924 C140.538971,26.8468354 141.344118,26.043038 142.310294,26.043038 L156.319853,26.043038 C157.286029,26.043038 158.091176,26.8468354 158.091176,27.8113924 C158.091176,28.7759494 157.286029,29.5797468 156.319853,29.5797468 Z" id="Shape" fill="#E7E7E7" fill-rule="nonzero"></path>
                <path d="M123.469853,16.8797468 L109.460294,16.8797468 C108.494118,16.8797468 107.688971,16.0759494 107.688971,15.1113924 C107.688971,14.1468354 108.494118,13.343038 109.460294,13.343038 L123.469853,13.343038 C124.436029,13.343038 125.241176,14.1468354 125.241176,15.1113924 C125.241176,16.0759494 124.275,16.8797468 123.469853,16.8797468 Z" id="Shape" fill="#F0F0F0" fill-rule="nonzero"></path>
                <path d="M135.386029,16.8797468 L130.877206,16.8797468 C129.911029,16.8797468 129.105882,16.0759494 129.105882,15.1113924 C129.105882,14.1468354 129.911029,13.343038 130.877206,13.343038 L135.386029,13.343038 C136.352206,13.343038 137.157353,14.1468354 137.157353,15.1113924 C137.157353,16.0759494 136.352206,16.8797468 135.386029,16.8797468 Z" id="Shape" fill="#F0F0F0" fill-rule="nonzero"></path>
                <path d="M147.463235,16.8797468 L142.954412,16.8797468 C141.988235,16.8797468 141.183088,16.0759494 141.183088,15.1113924 C141.183088,14.1468354 141.988235,13.343038 142.954412,13.343038 L147.463235,13.343038 C148.429412,13.343038 149.234559,14.1468354 149.234559,15.1113924 C149.234559,16.0759494 148.429412,16.8797468 147.463235,16.8797468 Z" id="Shape" fill="#F0F0F0" fill-rule="nonzero"></path>
                <path d="M159.540441,16.8797468 L155.031618,16.8797468 C154.065441,16.8797468 153.260294,16.0759494 153.260294,15.1113924 C153.260294,14.1468354 154.065441,13.343038 155.031618,13.343038 L159.540441,13.343038 C160.506618,13.343038 161.311765,14.1468354 161.311765,15.1113924 C161.311765,16.0759494 160.506618,16.8797468 159.540441,16.8797468 Z" id="Shape" fill="#F0F0F0" fill-rule="nonzero"></path>
                <path d="M176.609559,39.8683544 L108.172059,39.8683544 C106.722794,39.8683544 105.595588,38.743038 105.595588,37.2962025 C105.595588,35.8493671 106.722794,34.7240506 108.172059,34.7240506 L176.609559,34.7240506 C178.058824,34.7240506 179.186029,35.8493671 179.186029,37.2962025 C179.186029,38.743038 178.058824,39.8683544 176.609559,39.8683544 Z" id="Shape" fill="#A8A8A8" fill-rule="nonzero"></path>
                <polygon id="Shape" fill="#CFCFCF" fill-rule="nonzero" points="189.330882 25.2392405 191.907353 27.8113924 189.330882 30.3835443"></polygon>
                <polygon id="Shape" fill="#CFCFCF" fill-rule="nonzero" points="108.816176 25.2392405 106.239706 27.8113924 108.816176 30.3835443"></polygon>
                <path d="M222.341912,44.6911392 L219.121324,44.6911392 C218.155147,44.6911392 217.35,43.8873418 217.35,42.9227848 C217.35,41.9582278 218.155147,41.1544304 219.121324,41.1544304 L222.341912,41.1544304 C223.308088,41.1544304 224.113235,41.9582278 224.113235,42.9227848 C224.113235,43.8873418 223.308088,44.6911392 222.341912,44.6911392 Z" id="Shape" fill="#E7E7E7" fill-rule="nonzero"></path>
                <rect id="Rectangle-path" fill="#F25022" fill-rule="nonzero" x="98.6713235" y="12.7" width="2.57647059" height="2.5721519"></rect>
                <rect id="Rectangle-path" fill="#7FBA00" fill-rule="nonzero" x="101.247794" y="12.7" width="2.57647059" height="2.5721519"></rect>
                <rect id="Rectangle-path" fill="#00A4EF" fill-rule="nonzero" x="98.6713235" y="15.1113924" width="2.57647059" height="2.5721519"></rect>
                <rect id="Rectangle-path" fill="#FFB900" fill-rule="nonzero" x="101.247794" y="15.1113924" width="2.57647059" height="2.5721519"></rect>
                <rect id="Rectangle-path" fill="#D5D5D5" fill-rule="nonzero" x="106.239706" y="76.521519" width="86.3117647" height="39.8683544"></rect>
                <rect id="Rectangle-path" fill="#696969" fill-rule="nonzero" opacity="0.5" x="202.696324" y="20.2556962" width="71.0139706" height="8.84177215"></rect>
                <path d="M235.707353,44.6911392 L227.494853,44.6911392 C226.528676,44.6911392 225.723529,43.8873418 225.723529,42.9227848 C225.723529,41.9582278 226.528676,41.1544304 227.494853,41.1544304 L235.707353,41.1544304 C236.673529,41.1544304 237.478676,41.9582278 237.478676,42.9227848 C237.478676,43.8873418 236.5125,44.6911392 235.707353,44.6911392 Z" id="Shape" fill="#0483DA" fill-rule="nonzero"></path>
                <path d="M227.977941,50.9607595 L219.121324,50.9607595 C218.155147,50.9607595 217.35,50.156962 217.35,49.1924051 C217.35,48.2278481 218.155147,47.4240506 219.121324,47.4240506 L227.977941,47.4240506 C228.944118,47.4240506 229.749265,48.2278481 229.749265,49.1924051 C229.749265,50.156962 228.944118,50.9607595 227.977941,50.9607595 Z" id="Shape" fill="#E7E7E7" fill-rule="nonzero"></path>
                <path d="M233.775,50.9607595 L233.130882,50.9607595 C232.164706,50.9607595 231.359559,50.156962 231.359559,49.1924051 C231.359559,48.2278481 232.164706,47.4240506 233.130882,47.4240506 L233.775,47.4240506 C234.741176,47.4240506 235.546324,48.2278481 235.546324,49.1924051 C235.546324,50.156962 234.741176,50.9607595 233.775,50.9607595 Z" id="Shape" fill="#B8D432" fill-rule="nonzero"></path>
                <path d="M262.277206,38.421519 L232.486765,38.421519 C231.520588,38.421519 230.715441,37.6177215 230.715441,36.6531646 C230.715441,35.6886076 231.520588,34.8848101 232.486765,34.8848101 L262.277206,34.8848101 C263.243382,34.8848101 263.8875,35.6886076 263.8875,36.6531646 C263.8875,37.6177215 263.243382,38.421519 262.277206,38.421519 Z" id="Shape" fill="#B8D432" fill-rule="nonzero"></path>
                <path d="M248.911765,44.6911392 L240.699265,44.6911392 C239.733088,44.6911392 238.927941,43.8873418 238.927941,42.9227848 C238.927941,41.9582278 239.733088,41.1544304 240.699265,41.1544304 L248.911765,41.1544304 C249.877941,41.1544304 250.522059,41.9582278 250.522059,42.9227848 C250.522059,43.8873418 249.877941,44.6911392 248.911765,44.6911392 Z" id="Shape" fill="#B8D432" fill-rule="nonzero"></path>
                <path d="M255.997059,57.3911392 L242.631618,57.3911392 C241.665441,57.3911392 241.021324,56.5873418 241.021324,55.7835443 C241.021324,54.9797468 241.826471,54.0151899 242.631618,54.0151899 L255.997059,54.0151899 C256.963235,54.0151899 257.607353,54.8189873 257.607353,55.7835443 C257.607353,56.7481013 256.963235,57.3911392 255.997059,57.3911392 Z" id="Shape" fill="#0266AB" fill-rule="nonzero"></path>
                <path d="M247.784559,50.9607595 L238.927941,50.9607595 C237.961765,50.9607595 237.156618,50.156962 237.156618,49.1924051 C237.156618,48.2278481 237.961765,47.4240506 238.927941,47.4240506 L247.784559,47.4240506 C248.750735,47.4240506 249.394853,48.2278481 249.394853,49.1924051 C249.394853,50.156962 248.589706,50.9607595 247.784559,50.9607595 Z" id="Shape" fill="#7AC7FF" fill-rule="nonzero"></path>
                <path d="M252.776471,51.121519 C252.615441,51.121519 252.293382,51.121519 252.132353,50.9607595 C251.971324,50.8 251.810294,50.8 251.649265,50.6392405 C251.327206,50.3177215 251.166176,49.835443 251.166176,49.5139241 C251.166176,49.3531646 251.166176,49.3531646 251.166176,49.1924051 C251.166176,49.0316456 251.166176,49.0316456 251.327206,48.8708861 C251.327206,48.7101266 251.488235,48.5493671 251.649265,48.3886076 C251.649265,48.2278481 251.810294,48.2278481 251.971324,48.2278481 C252.132353,48.2278481 252.132353,48.0670886 252.293382,48.0670886 C252.9375,47.7455696 253.581618,47.9063291 254.064706,48.3886076 C254.386765,48.7101266 254.547794,49.1924051 254.547794,49.5139241 C254.547794,49.9962025 254.386765,50.478481 254.064706,50.6392405 C253.903676,50.8 253.742647,50.9607595 253.581618,50.9607595 C253.259559,50.9607595 252.9375,51.121519 252.776471,51.121519 Z" id="Shape" fill="#E7E7E7" fill-rule="nonzero"></path>
                <path d="M253.420588,44.6911392 C252.9375,44.6911392 252.615441,44.5303797 252.293382,44.2088608 C251.971324,43.8873418 251.810294,43.4050633 251.810294,43.0835443 C251.810294,42.9227848 251.810294,42.6012658 251.971324,42.4405063 C252.132353,42.2797468 252.132353,42.1189873 252.293382,41.9582278 C252.454412,41.7974684 252.615441,41.6367089 252.776471,41.6367089 C253.420588,41.3151899 254.225735,41.4759494 254.708824,41.9582278 C254.869853,42.1189873 255.030882,42.2797468 255.030882,42.4405063 C255.191912,42.6012658 255.191912,42.9227848 255.191912,43.0835443 C255.191912,43.5658228 255.030882,44.0481013 254.708824,44.2088608 C254.225735,44.5303797 253.903676,44.6911392 253.420588,44.6911392 Z" id="Shape" fill="#E7E7E7" fill-rule="nonzero"></path>
                <path d="M227.333824,76.3607595 L213.968382,76.3607595 C213.002206,76.3607595 212.197059,75.556962 212.197059,74.7531646 C212.197059,73.9493671 213.002206,73.1455696 213.968382,73.1455696 L227.333824,73.1455696 C228.3,73.1455696 229.105147,73.9493671 229.105147,74.7531646 C229.105147,75.556962 228.3,76.3607595 227.333824,76.3607595 Z" id="Shape" fill="#E7E7E7" fill-rule="nonzero"></path>
                <path d="M214.129412,108.03038 C213.968382,108.03038 213.646324,108.03038 213.485294,107.86962 C213.324265,107.86962 213.163235,107.708861 213.002206,107.548101 C212.680147,107.226582 212.519118,106.744304 212.519118,106.262025 C212.519118,106.101266 212.519118,105.779747 212.680147,105.618987 C212.841176,105.458228 212.841176,105.297468 213.002206,105.136709 C213.324265,104.81519 213.968382,104.65443 214.451471,104.65443 C214.6125,104.65443 214.6125,104.65443 214.773529,104.81519 C214.934559,104.975949 215.095588,104.975949 215.256618,105.136709 C215.417647,105.297468 215.578676,105.458228 215.578676,105.618987 C215.739706,105.779747 215.739706,106.101266 215.739706,106.262025 C215.739706,106.744304 215.578676,107.065823 215.256618,107.548101 C215.095588,107.708861 214.934559,107.86962 214.773529,107.86962 C214.451471,108.03038 214.290441,108.03038 214.129412,108.03038 Z" id="Shape" fill="#E7E7E7" fill-rule="nonzero"></path>
                <path d="M220.409559,101.117722 L219.121324,101.117722 C218.155147,101.117722 217.35,100.313924 217.35,99.5101266 C217.35,98.7063291 218.155147,97.9025316 219.121324,97.9025316 L220.409559,97.9025316 C221.375735,97.9025316 222.180882,98.7063291 222.180882,99.5101266 C222.180882,100.313924 221.375735,101.117722 220.409559,101.117722 Z" id="Shape" fill="#E7E7E7" fill-rule="nonzero"></path>
                <path d="M233.775,95.3303797 L224.274265,95.3303797 C223.308088,95.3303797 222.502941,94.5265823 222.502941,93.7227848 C222.502941,92.9189873 223.308088,92.1151899 224.274265,92.1151899 L233.775,92.1151899 C234.741176,92.1151899 235.546324,92.9189873 235.546324,93.7227848 C235.546324,94.5265823 234.741176,95.3303797 233.775,95.3303797 Z" id="Shape" fill="#0483DA" fill-rule="nonzero"></path>
                <path d="M222.341912,82.6303797 L219.121324,82.6303797 C218.155147,82.6303797 217.35,81.8265823 217.35,81.0227848 C217.35,80.2189873 218.155147,79.4151899 219.121324,79.4151899 L222.341912,79.4151899 C223.308088,79.4151899 224.113235,80.2189873 224.113235,81.0227848 C224.113235,81.8265823 223.308088,82.6303797 222.341912,82.6303797 Z" id="Shape" fill="#E7E7E7" fill-rule="nonzero"></path>
                <path d="M241.9875,82.6303797 L227.333824,82.6303797 C226.367647,82.6303797 225.5625,81.8265823 225.5625,81.0227848 C225.5625,80.2189873 226.367647,79.4151899 227.333824,79.4151899 L241.9875,79.4151899 C242.953676,79.4151899 243.597794,80.2189873 243.597794,81.0227848 C243.597794,81.8265823 242.953676,82.6303797 241.9875,82.6303797 Z" id="Shape" fill="#0266AB" fill-rule="nonzero"></path>
                <path d="M227.977941,89.0607595 L219.121324,89.0607595 C218.155147,89.0607595 217.35,88.256962 217.35,87.4531646 C217.35,86.6493671 218.155147,85.8455696 219.121324,85.8455696 L227.977941,85.8455696 C228.944118,85.8455696 229.749265,86.6493671 229.749265,87.4531646 C229.749265,88.256962 228.944118,89.0607595 227.977941,89.0607595 Z" id="Shape" fill="#E7E7E7" fill-rule="nonzero"></path>
                <path d="M233.775,89.0607595 L233.130882,89.0607595 C232.164706,89.0607595 231.359559,88.256962 231.359559,87.4531646 C231.359559,86.6493671 232.164706,85.8455696 233.130882,85.8455696 L233.775,85.8455696 C234.741176,85.8455696 235.546324,86.6493671 235.546324,87.4531646 C235.546324,88.256962 234.741176,89.0607595 233.775,89.0607595 Z" id="Shape" fill="#B8D432" fill-rule="nonzero"></path>
                <path d="M243.275735,76.3607595 L232.486765,76.3607595 C231.520588,76.3607595 230.715441,75.556962 230.715441,74.7531646 C230.715441,73.9493671 231.520588,73.1455696 232.486765,73.1455696 L243.275735,73.1455696 C244.241912,73.1455696 244.886029,73.9493671 244.886029,74.7531646 C244.886029,75.556962 244.241912,76.3607595 243.275735,76.3607595 Z" id="Shape" fill="#7AC7FF" fill-rule="nonzero"></path>
                <path d="M248.911765,82.6303797 L246.979412,82.6303797 C246.013235,82.6303797 245.369118,81.8265823 245.369118,81.0227848 C245.369118,80.2189873 246.174265,79.4151899 246.979412,79.4151899 L248.911765,79.4151899 C249.877941,79.4151899 250.522059,80.2189873 250.522059,81.0227848 C250.522059,81.8265823 249.877941,82.6303797 248.911765,82.6303797 Z" id="Shape" fill="#0483DA" fill-rule="nonzero"></path>
                <path d="M252.132353,95.3303797 L238.766912,95.3303797 C237.800735,95.3303797 236.995588,94.5265823 236.995588,93.7227848 C236.995588,92.9189873 237.800735,92.1151899 238.766912,92.1151899 L252.132353,92.1151899 C253.098529,92.1151899 253.742647,92.9189873 253.742647,93.7227848 C253.742647,94.5265823 253.098529,95.3303797 252.132353,95.3303797 Z" id="Shape" fill="#B8D432" fill-rule="nonzero"></path>
                <path d="M257.285294,89.0607595 L238.927941,89.0607595 C237.961765,89.0607595 237.156618,88.256962 237.156618,87.4531646 C237.156618,86.6493671 237.961765,85.8455696 238.927941,85.8455696 L257.285294,85.8455696 C258.251471,85.8455696 258.895588,86.6493671 258.895588,87.4531646 C258.895588,88.256962 258.090441,89.0607595 257.285294,89.0607595 Z" id="Shape" fill="#7AC7FF" fill-rule="nonzero"></path>
                <path d="M262.277206,89.0607595 C261.794118,89.0607595 261.472059,88.9 261.15,88.578481 C260.988971,88.4177215 260.827941,88.256962 260.827941,88.0962025 C260.666912,87.935443 260.666912,87.6139241 260.666912,87.4531646 C260.666912,87.2924051 260.666912,86.9708861 260.827941,86.8101266 C260.827941,86.6493671 260.988971,86.4886076 261.15,86.3278481 C261.633088,85.8455696 262.438235,85.6848101 262.921324,86.0063291 C263.082353,86.1670886 263.243382,86.1670886 263.404412,86.3278481 C263.565441,86.4886076 263.726471,86.6493671 263.726471,86.8101266 C263.726471,86.9708861 263.8875,87.2924051 263.8875,87.4531646 C263.8875,87.6139241 263.8875,87.935443 263.726471,88.0962025 C263.565441,88.256962 263.565441,88.4177215 263.404412,88.578481 C263.082353,88.9 262.760294,89.0607595 262.277206,89.0607595 Z" id="Shape" fill="#E7E7E7" fill-rule="nonzero"></path>
                <path d="M253.420588,82.6303797 C252.9375,82.6303797 252.615441,82.4696203 252.132353,82.1481013 C251.649265,81.8265823 251.649265,81.3443038 251.649265,81.0227848 C251.649265,80.7012658 251.810294,80.2189873 252.132353,79.8974684 C252.293382,79.7367089 252.454412,79.5759494 252.615441,79.5759494 C253.098529,79.4151899 253.420588,79.4151899 253.903676,79.5759494 C254.064706,79.5759494 254.225735,79.7367089 254.386765,79.8974684 C254.708824,80.2189873 254.869853,80.7012658 254.869853,81.0227848 C254.869853,81.3443038 254.708824,81.8265823 254.386765,82.1481013 C254.064706,82.4696203 253.903676,82.6303797 253.420588,82.6303797 Z" id="Shape" fill="#E7E7E7" fill-rule="nonzero"></path>
                <path d="M267.430147,16.8797468 L262.921324,16.8797468 C261.955147,16.8797468 261.311029,16.0759494 261.311029,15.1113924 C261.311029,14.1468354 262.116176,13.343038 262.921324,13.343038 L267.430147,13.343038 C268.396324,13.343038 269.040441,14.1468354 269.040441,15.1113924 C269.040441,16.0759494 268.235294,16.8797468 267.430147,16.8797468 Z" id="Shape" fill="#F0F0F0" fill-rule="nonzero"></path>
                <ellipse id="Oval" fill="#F0F0F0" fill-rule="nonzero" cx="255.997059" cy="15.1113924" rx="2.57647059" ry="2.5721519"></ellipse>
                <path d="M284.660294,126.517722 L84.9838235,126.517722 C79.8308824,126.517722 75.6441176,122.337975 75.6441176,117.193671 L75.6441176,116.389873 L294,116.389873 L294,117.193671 C294,122.498734 289.813235,126.517722 284.660294,126.517722 Z" id="Shape" fill="#818181" fill-rule="nonzero"></path>
                <polygon id="Shape" fill="#A8A8A8" fill-rule="nonzero" opacity="0.1" points="284 117 86 117 86 12 224.712775 117"></polygon>
                <polygon id="Shape" fill="#A8A8A8" fill-rule="nonzero" opacity="0.5" points="271.846975 8 96 8 96 9.76785714 271.846975 9.76785714 271.846975 116 277 116 277 11.375 277 8"></polygon>
                <path d="M78,122 C79.768595,124.461538 82.823441,126 86.1998497,126 L283.80015,126 C287.176559,126 290.231405,124.461538 292,122 L78,122 Z" id="Shape" fill="#A8A8A8" fill-rule="nonzero" opacity="0.4"></path>
                <polygon id="Shape" fill="#F0F0F0" fill-rule="nonzero" opacity="0.26" points="146 93 146 104 153 98.5797101"></polygon>
            </g>
        </g>
    </g>
</svg>