<?xml version="1.0" encoding="UTF-8"?>
<svg width="39px" height="39px" viewBox="0 0 39 39" version="1.1" xmlns="http://www.w3.org/2000/svg" xmlns:xlink="http://www.w3.org/1999/xlink">
    <!-- Generator: Sketch 51.3 (57544) - http://www.bohemiancoding.com/sketch -->
    <title>hands-on_icon</title>
    <desc>Created with Sketch.</desc>
    <defs></defs>
    <g id="Learn" stroke="none" stroke-width="1" fill="none" fill-rule="evenodd">
        <g id="Learn-Azure" transform="translate(-543.000000, -2538.000000)" fill="#FFFFFF">
            <g id="Group-9" transform="translate(0.000000, 2352.000000)">
                <g id="Group-8-Copy" transform="translate(417.000000, 147.000000)">
                    <g id="hands-on_icon" transform="translate(126.000000, 39.000000)">
                        <polygon id="Fill-1" points="23.6502 37.5413 26.4802 30.4713 34.2572 38.2483 36.3792 36.1273 38.5002 34.0063 30.7212 26.2283 37.7932 23.3993 13.7512 13.4993"></polygon>
                        <path d="M16.6504,25.791 C15.9534,25.924 15.2354,26 14.5004,26 C8.1594,26 3.0004,20.841 3.0004,14.5 C3.0004,8.159 8.1594,3 14.5004,3 C20.8404,3 26.0004,8.159 26.0004,14.5 C26.0004,15.119 25.9374,15.723 25.8414,16.315 L28.6874,17.487 C28.8904,16.522 29.0004,15.524 29.0004,14.5 C29.0004,6.505 22.4954,0 14.5004,0 C6.5044,0 0.0004,6.505 0.0004,14.5 C0.0004,22.495 6.5044,29 14.5004,29 C15.6394,29 16.7444,28.854 17.8084,28.604 L16.6504,25.791 Z" id="Fill-2"></path>
                    </g>
                </g>
            </g>
        </g>
    </g>
</svg>